<svg xmlns="http://www.w3.org/2000/svg" width="129" height="35.76" viewBox="0 0 129 35.76"><path d="M55.46,17.22A5.2,5.2,0,0,1,54.8,19a2.07,2.07,0,0,1-1.14.9,3.71,3.71,0,0,1-1.63.32,3.82,3.82,0,0,1-3-1.3,4.24,4.24,0,0,1-.9-1.72,6.58,6.58,0,0,1-.33-2.28,7.37,7.37,0,0,1,.49-2.7,6.4,6.4,0,0,1,.82-1.47,4.57,4.57,0,0,1,1.14-1,3.52,3.52,0,0,1,1.64-.4,4.29,4.29,0,0,1,1.06.16,3.62,3.62,0,0,1,1,.65,4,4,0,0,1,.89,1.23c.09.24.25.65.49,1.14,0,.08.09.16.17.33h.08l-.08-3.51h-.17c-.08.08-.08.16-.16.24-.16.25-.41.25-.73.08l-.66-.24a6.08,6.08,0,0,0-2-.33,5.81,5.81,0,0,0-2,.33,8.09,8.09,0,0,0-1.71.9,4.34,4.34,0,0,0-1.47,2A7.08,7.08,0,0,0,46,15a5.93,5.93,0,0,0,.89,3.27,4.56,4.56,0,0,0,2.54,1.87,5.93,5.93,0,0,0,2.12.33,4.93,4.93,0,0,0,2-.41A3,3,0,0,0,55,19a4.32,4.32,0,0,0,.65-2h-.16Z" transform="translate(-1 -2.12)" style="fill:#fff"/><path d="M67.3,11.26a6.69,6.69,0,0,0-2-1.55,6.11,6.11,0,0,0-2.37-.57A4.69,4.69,0,0,0,61,9.47a7.5,7.5,0,0,0-1.8,1,6.45,6.45,0,0,0-1.71,2,5.1,5.1,0,0,0-.57,2.45,8.44,8.44,0,0,0,.32,2,6.21,6.21,0,0,0,1,1.71,5.84,5.84,0,0,0,2,1.47,5.92,5.92,0,0,0,2.45.49,4.9,4.9,0,0,0,2.45-.57,6.24,6.24,0,0,0,2-1.47,4.56,4.56,0,0,0,1.06-1.72,5.35,5.35,0,0,0,.33-2,4.61,4.61,0,0,0-1.22-3.51ZM65.58,19.1a4.62,4.62,0,0,1-1.22,1.06,3.44,3.44,0,0,1-2.94,0,4.65,4.65,0,0,1-1.23-1.06,6.39,6.39,0,0,1-1.3-4,8.78,8.78,0,0,1,.32-2.53,6.42,6.42,0,0,1,1-2,3.28,3.28,0,0,1,1.15-1,3.89,3.89,0,0,1,1.47-.33,2.85,2.85,0,0,1,1.47.33,2.59,2.59,0,0,1,1.14,1,7.49,7.49,0,0,1,1,2A8.24,8.24,0,0,1,66.72,15a5.86,5.86,0,0,1-1.14,4.08Z" transform="translate(-1 -2.12)" style="fill:#fff"/><path d="M78.64,20.16a1.4,1.4,0,0,1-.4-.32c-.17-.25-.41-.57-.66-1l-1.06-2.13a2.72,2.72,0,0,0-.49-.89,1.62,1.62,0,0,0-.32-.41A2.74,2.74,0,0,0,75,15l-.16-.08H75a4.2,4.2,0,0,0,.9-.25c.24-.08.41-.24.65-.32a2.25,2.25,0,0,0,.9-2A2.78,2.78,0,0,0,77,10.94a3.46,3.46,0,0,0-1.22-1,5.94,5.94,0,0,0-2-.33h-5v.08a1.78,1.78,0,0,1,.73.17c.17.08.41.16.49.32a1,1,0,0,1,.33.66,4.74,4.74,0,0,1,.08,1.22v6a4.87,4.87,0,0,1-.08,1.23,1.54,1.54,0,0,1-.33.65,1.59,1.59,0,0,1-.49.32,4,4,0,0,1-.73.17v.08h5.06v-.08a1.55,1.55,0,0,1-.74-.17c-.16-.08-.4-.16-.49-.32a1,1,0,0,1-.32-.65A4.87,4.87,0,0,1,72.28,18V15.18h.4a1.66,1.66,0,0,1,.66.08l.49.25a5.87,5.87,0,0,1,1,1.22c.32.58.65,1.31,1.06,2.05l.57,1.3a1.93,1.93,0,0,0,.25.57H79.3v-.08A3.74,3.74,0,0,0,78.64,20.16Zm-6-5.22h-.32V9.79h.32a5.33,5.33,0,0,1,1.31.09,1.58,1.58,0,0,1,.82.4,2.44,2.44,0,0,1,.65.9,3.07,3.07,0,0,1,.24,1.23,2.43,2.43,0,0,1-.81,2,1.82,1.82,0,0,1-.82.49c-.24,0-.73.08-1.39.08Z" transform="translate(-1 -2.12)" style="fill:#fff"/><path d="M90.73,12.57a5.19,5.19,0,0,0-1.72-2,5.4,5.4,0,0,0-2.85-1H79.87v.08A1.58,1.58,0,0,1,81,10a1.07,1.07,0,0,1,.41.73,5.61,5.61,0,0,1,.08,1.31v6a4.87,4.87,0,0,1-.08,1.23,1.54,1.54,0,0,1-.33.65,1.59,1.59,0,0,1-.49.32,3.78,3.78,0,0,1-.73.17v.08h5.88a17.52,17.52,0,0,0,2-.16A4.07,4.07,0,0,0,90,19.18a4.43,4.43,0,0,0,1-1.63,6,6,0,0,0,.33-2.12,5.47,5.47,0,0,0-.57-2.86Zm-1.55,4.65a6.15,6.15,0,0,1-.82,1.64,4,4,0,0,1-1.31,1.06,3.84,3.84,0,0,1-1.71.32,2.06,2.06,0,0,1-1.71-.65,1.46,1.46,0,0,1-.33-.73,4.87,4.87,0,0,1-.08-1.23V9.55h1a8.84,8.84,0,0,1,1.71.16A4.23,4.23,0,0,1,88,11.18,6.24,6.24,0,0,1,89,13a6.13,6.13,0,0,1,.33,2.2,3.39,3.39,0,0,1-.16,2Z" transform="translate(-1 -2.12)" style="fill:#fff"/><path d="M101,17.31c-.09.49-.25.81-.33,1.14a2.79,2.79,0,0,1-.49.82,2.52,2.52,0,0,1-1.06.73,4.67,4.67,0,0,1-1.63.24A3.43,3.43,0,0,1,96,20a1.47,1.47,0,0,1-.82-.9c-.08-.24-.16-.49-.25-.81s-.08-.9-.08-1.64V14.77h.49a1.7,1.7,0,0,1,1,.17A1.68,1.68,0,0,1,97.42,16a6.51,6.51,0,0,1,.25,1h.08V12.73h-.08a6.11,6.11,0,0,1-.16.9,1.39,1.39,0,0,1-.33.57,1,1,0,0,1-.65.33,4.5,4.5,0,0,1-1.15.08h-.49V9.71h1.88a6.81,6.81,0,0,1,1.39.08,3.53,3.53,0,0,1,.9.41,2.36,2.36,0,0,1,.73.82,4.12,4.12,0,0,1,.33,1.06h.08L100,9.55H91.46v.08a1.7,1.7,0,0,1,.74.16c.16.09.41.17.49.33a1,1,0,0,1,.32.65A4.34,4.34,0,0,1,93.1,12v6A4.23,4.23,0,0,1,93,19.18a1.7,1.7,0,0,1-.32.66,1.86,1.86,0,0,1-.49.32,7.19,7.19,0,0,1-.74.17v.08h9.47l.09-3.1Z" transform="translate(-1 -2.12)" style="fill:#fff"/><path d="M111.63,17.22a7.07,7.07,0,0,1-.33,1.15A3.12,3.12,0,0,1,109.75,20a4.67,4.67,0,0,1-1.63.24,3.5,3.5,0,0,1-1.47-.24,1.91,1.91,0,0,1-.9-.9,6.5,6.5,0,0,1-.24-.9c0-.32-.09-.89-.09-1.63V11.92a4.34,4.34,0,0,1,.09-1.23,1.12,1.12,0,0,1,.4-.65,1.92,1.92,0,0,1,.49-.33,5.52,5.52,0,0,1,.74-.16V9.47h-5.06v.08c.24,0,.49.08.65.08a1.57,1.57,0,0,1,.49.33,1.8,1.8,0,0,1,.41.65,5.61,5.61,0,0,1,.08,1.31v6a4.74,4.74,0,0,1-.08,1.22,1.58,1.58,0,0,1-.33.66,1.66,1.66,0,0,1-1.22.48v.09h9.55l.08-3.19h-.08Z" transform="translate(-1 -2.12)" style="fill:#fff"/><path d="M116.12,11c.08-.41.16-.74.41-.9a2,2,0,0,1,.49-.33,5.31,5.31,0,0,1,.73-.16V9.55h-5.06v.08a1.7,1.7,0,0,1,.74.16c.16.09.4.17.49.33a1,1,0,0,1,.32.65,4.87,4.87,0,0,1,.08,1.23v6a4.74,4.74,0,0,1-.08,1.22,1.7,1.7,0,0,1-.32.66,1.86,1.86,0,0,1-.49.32,7.19,7.19,0,0,1-.74.17v.08h5.06v-.08a2,2,0,0,1-.81-.17,1,1,0,0,1-.57-.49,3.86,3.86,0,0,1-.25-.65A4,4,0,0,1,116,18V12a4.06,4.06,0,0,0,.08-1Z" transform="translate(-1 -2.12)" style="fill:#fff"/><path d="M129.43,20.16l-.49-.24a2.28,2.28,0,0,1-.49-.65c-.16-.25-.33-.74-.65-1.39l-3.43-8.33H124L121,17.14c-.25.66-.49,1.23-.65,1.55a10.19,10.19,0,0,1-.49.9c-.25.25-.41.49-.66.57a2.35,2.35,0,0,1-.73.25v.08H122v-.08a1.35,1.35,0,0,1-.82-.25c-.16-.08-.24-.24-.41-.4a1.58,1.58,0,0,1-.16-.58,6.14,6.14,0,0,1,.33-1.38l.16-.49.41-1.15h3.59l.9,2.29a2.51,2.51,0,0,1,.24.9,1,1,0,0,1-.49.89,3.55,3.55,0,0,1-1,.25v.08H130v-.08c-.16-.25-.41-.25-.57-.33Zm-7.59-4.49,1.63-4.16,1.71,4.16Z" transform="translate(-1 -2.12)" style="fill:#fff"/><path d="M65.74,30a1.42,1.42,0,0,1-.57.41,2.43,2.43,0,0,1-.81.16A2,2,0,0,1,63,30a2.52,2.52,0,0,1-.41-.82,4.15,4.15,0,0,1-.16-1.06,2.73,2.73,0,0,1,.24-1.22,1.72,1.72,0,0,1,.41-.65,2.52,2.52,0,0,1,.49-.49,1.19,1.19,0,0,1,.74-.17,1.08,1.08,0,0,1,.49.08.87.87,0,0,1,.4.33,3.16,3.16,0,0,1,.66,1.14.28.28,0,0,0,.08.17l-.08-1.55h0c0,.08,0,.08-.09.08s-.16.16-.32.08l-.33-.08a4.25,4.25,0,0,0-.9-.17,2.93,2.93,0,0,0-.89.17,2.34,2.34,0,0,0-.82.41,2.37,2.37,0,0,0-.65.89,3.18,3.18,0,0,0-.25,1.23A2.78,2.78,0,0,0,62,29.8a2.11,2.11,0,0,0,1.14.9,4.26,4.26,0,0,0,1,.16,4.09,4.09,0,0,0,1-.16,1.82,1.82,0,0,0,.65-.74.62.62,0,0,0,.25-.57.72.72,0,0,1-.25.57Z" transform="translate(-1 -2.12)" style="fill:#fff"/><path d="M65.83,30h0l-.09.08-.08.08a2.71,2.71,0,0,1-.57.41,3,3,0,0,1-1,.17,4.29,4.29,0,0,1-1-.17,2.07,2.07,0,0,1-1.14-.9,2.73,2.73,0,0,1-.41-1.47,3.17,3.17,0,0,1,.25-1.22,2.49,2.49,0,0,1,.65-.9,2.74,2.74,0,0,1,.82-.41.87.87,0,0,1,.4-.08h.58a1.64,1.64,0,0,1,.57.08h.08c.08,0,.16.09.33.09l.32.08c.16.08.25.08.33-.08h0s0-.09.08-.09h0l.08,1.55V27.1h0a3.14,3.14,0,0,1-.16-.49A1.57,1.57,0,0,0,65.5,26c-.16-.08-.24-.24-.41-.24H65a1.06,1.06,0,0,0-.49-.08h-.08a1.06,1.06,0,0,0-.49.08c-.08,0-.16.08-.25.08a1.41,1.41,0,0,0-.49.49,1.78,1.78,0,0,0-.4.65,2.91,2.91,0,0,0-.25,1.23,4.29,4.29,0,0,0,.16,1.06,2.8,2.8,0,0,0,.41.81,1.69,1.69,0,0,0,1.39.58,2.48,2.48,0,0,0,.82-.17,1.75,1.75,0,0,0,.4-.24l.09-.08h0c-.09-.17-.09-.17,0-.25h0c.08-.16.16-.41.24-.57A4.08,4.08,0,0,1,65.83,30Zm-.09-.08h0a1.08,1.08,0,0,1-.57.49,2.4,2.4,0,0,1-.73.16A1.79,1.79,0,0,1,63.05,30a3.36,3.36,0,0,1-.41-.73h0a4.3,4.3,0,0,1-.16-1.07,2.76,2.76,0,0,1,.24-1.22,1.85,1.85,0,0,1,.41-.65h0l.49-.49h0a1.68,1.68,0,0,1,.74-.17,1,1,0,0,1,.49.09h0a.87.87,0,0,1,.41.32h0a1.55,1.55,0,0,1,.4.57,2.76,2.76,0,0,1,.25.49h0v.08H66l-.08-1.63h-.08v.08h0a.09.09,0,0,1-.09.09h-.16l-.32-.09h0a4.26,4.26,0,0,0-1-.16,3,3,0,0,0-.9.16,2.86,2.86,0,0,0-.82.41,2.26,2.26,0,0,0-.65.9,3.17,3.17,0,0,0-.25,1.22,3.45,3.45,0,0,0,.41,1.56,2.13,2.13,0,0,0,1.14.89,3.81,3.81,0,0,0,1,.17,3.67,3.67,0,0,0,1-.17,1.9,1.9,0,0,0,.66-.49h0a1,1,0,0,0,.24-.73H66Z" transform="translate(-1 -2.12)" style="fill:#fff;fill-rule:evenodd"/><path d="M74.81,30.53a.18.18,0,0,1-.17-.16,1.37,1.37,0,0,1-.24-.49,5.49,5.49,0,0,0-.49-1,1.53,1.53,0,0,0-.25-.41c-.08-.08-.08-.16-.16-.16a.43.43,0,0,0-.33-.17L73,28.08h.16a.62.62,0,0,0,.41-.16c.08-.08.17-.08.25-.16a1.2,1.2,0,0,0,.41-.9,1.51,1.51,0,0,0-.17-.65,1.33,1.33,0,0,0-.57-.41,2.52,2.52,0,0,0-.9-.17H70.4a.27.27,0,0,1,.24.09c.09,0,.17.08.25.16a.42.42,0,0,1,.16.33c0,.16.08.32.08.57v2.69a1.21,1.21,0,0,1-.08.57.42.42,0,0,1-.16.33c-.08.08-.16.16-.25.16a.29.29,0,0,0-.24.08h2a.32.32,0,0,1-.25-.08c-.08,0-.16-.08-.24-.16a.42.42,0,0,1-.16-.33c0-.16-.08-.32-.08-.57V25.63h.16a1.44,1.44,0,0,1,.65.09.88.88,0,0,1,.41.16.85.85,0,0,1,.33.41,1.21,1.21,0,0,1,.08.57,1.38,1.38,0,0,1-.41,1c-.16.08-.25.16-.41.24a3.29,3.29,0,0,1-.41.08h.08c.09,0,.17.09.25.09s.24.32.41.57a5.91,5.91,0,0,1,.49,1l.24.57a.35.35,0,0,1,.08.24h1.07c.24-.08.16-.08.08-.08Z" transform="translate(-1 -2.12)" style="fill:#fff"/><path d="M74.81,30.53a.18.18,0,0,1-.17-.16,1.37,1.37,0,0,1-.24-.49,5.49,5.49,0,0,0-.49-1h0a1.39,1.39,0,0,1-.16-.41c-.09-.08-.09-.16-.17-.16a.42.42,0,0,0-.32-.17l-.17-.08h.17a.61.61,0,0,0,.4-.16c.09-.08.17-.08.25-.16a1.2,1.2,0,0,0,.41-.9,1.38,1.38,0,0,0-.17-.65,1.33,1.33,0,0,0-.57-.41,2.52,2.52,0,0,0-.9-.17h-2.2a.3.3,0,0,1,.25.09h0c.08,0,.16.08.24.16a.42.42,0,0,1,.16.33c0,.16.09.32.09.57v2.69a1.09,1.09,0,0,1-.09.57.42.42,0,0,1-.16.33c-.08.08-.16.16-.24.16h0a.3.3,0,0,0-.25.08h2a.29.29,0,0,1-.24-.08h0c-.09,0-.17-.08-.25-.16a.42.42,0,0,1-.16-.33c0-.16-.08-.32-.08-.57V25.63h.73c.16,0,.25.09.41.17a.85.85,0,0,1,.33.41,1.21,1.21,0,0,1,.08.57,1.4,1.4,0,0,1-.41,1c-.16.08-.25.16-.41.24h-.24c.08,0,.08.08.16.08s.24.33.41.57a6.83,6.83,0,0,1,.49,1l.24.58a.08.08,0,0,0,.08.08.24.24,0,0,0,.09.16h1.06c.16.08.08.08,0,.08Zm0-.08c-.08,0-.08-.08-.17-.16h0a1.85,1.85,0,0,1-.24-.41,5.49,5.49,0,0,0-.49-1h0a1.39,1.39,0,0,1-.16-.41c-.09-.08-.09-.16-.17-.16h0a.42.42,0,0,0-.32-.17.61.61,0,0,0,.4-.16c.09-.08.25-.08.33-.16h0a1,1,0,0,0,.41-.9,1.52,1.52,0,0,0-.16-.65,1.43,1.43,0,0,0-.58-.41h0a2.53,2.53,0,0,0-.89-.16H70.48v.08c.08,0,.16,0,.16.08h0c.09,0,.17.08.25.16a.44.44,0,0,1,.16.33,4.45,4.45,0,0,1,.08.57v2.69a1.27,1.27,0,0,1-.08.58h0a.61.61,0,0,1-.16.32h0c-.08.08-.16.08-.25.17h0c-.08,0-.08,0-.16.08v.08h2v-.08c-.08,0-.16,0-.16-.08h0c-.08,0-.17-.09-.25-.17a.42.42,0,0,1-.16-.32c0-.17-.08-.33-.08-.58V25.72H72c.25,0,.49,0,.57.08s.25.08.41.16a.84.84,0,0,1,.33.41,1.21,1.21,0,0,1,.08.57,1.3,1.3,0,0,1-.41.9,1.64,1.64,0,0,1-.41.24,3.29,3.29,0,0,1-.41.08v.09h0c.09,0,.17.08.25.08s.24.24.41.57a10.19,10.19,0,0,1,.49.9l.24.57h0v.08h0a.25.25,0,0,0,.08.16h1.15v-.08c.16,0,.08-.08,0-.08Z" transform="translate(-1 -2.12)" style="fill:#fff;fill-rule:evenodd"/><path d="M82.81,25.63a.27.27,0,0,1,.24.09c.09,0,.17.08.25.16a.42.42,0,0,1,.16.33c0,.16.08.32.08.57v2.77a3.29,3.29,0,0,1-.08.41c-.08.08-.16.25-.24.33a1.39,1.39,0,0,1-.57.32,2.09,2.09,0,0,1-.74.09,1.55,1.55,0,0,1-.65-.17,1.81,1.81,0,0,1-.49-.41c-.08-.16-.17-.24-.17-.4V26.21a.43.43,0,0,1,.17-.33c.08-.08.16-.16.24-.16a.29.29,0,0,0,.25-.09h-2a.27.27,0,0,1,.24.09c.08,0,.16.08.25.16a.42.42,0,0,1,.16.33c0,.16.08.32.08.57v2.77a1.2,1.2,0,0,0,.33.74,2.43,2.43,0,0,0,1.47.41,2,2,0,0,0,1.47-.49,1.58,1.58,0,0,0,.32-.41,1.69,1.69,0,0,0,.09-.74V26.69a1.25,1.25,0,0,1,.08-.57.42.42,0,0,1,.16-.32c.08-.08.16-.17.25-.17s.16,0,.16-.08l-1.47.08Z" transform="translate(-1 -2.12)" style="fill:#fff"/><path d="M82.81,25.55H84.2v.08c-.08,0-.17,0-.17.09s-.16.08-.24.16a.42.42,0,0,0-.16.33h0a4,4,0,0,0-.09.57v2.36a1.86,1.86,0,0,1-.08.74h0a1.71,1.71,0,0,1-.32.49h0a2.08,2.08,0,0,1-1.56.49A2.68,2.68,0,0,1,80,30.45a1.15,1.15,0,0,1-.41-.73V26.86a1.21,1.21,0,0,0-.08-.57.63.63,0,0,0-.16-.33c-.08-.08-.16-.16-.25-.16h0c-.08,0-.08,0-.16-.08v-.09h2v.09c-.08,0-.16,0-.16.08s-.16.08-.25.16a.42.42,0,0,0-.16.33V29.8a.66.66,0,0,0,.16.41,1.05,1.05,0,0,0,.41.4,1.46,1.46,0,0,0,.66.17,2.28,2.28,0,0,0,.73-.08,1.39,1.39,0,0,0,.57-.33l.25-.25a3.46,3.46,0,0,0,.08-.4V26.94a1.21,1.21,0,0,0-.08-.57h0a.59.59,0,0,0-.17-.33c-.08-.08-.16-.16-.24-.16h-.25v-.33Zm.24.17c.09,0,.17.08.25.16a.42.42,0,0,1,.16.33c0,.08.08.32.08.48v2.78a.51.51,0,0,1-.08.33h0v.08c-.08.08-.16.24-.24.33h0a1.39,1.39,0,0,1-.57.32,2.34,2.34,0,0,1-.74.08h-.33c-.08,0-.24-.08-.32-.08a1.81,1.81,0,0,1-.49-.41c-.08-.16-.17-.24-.17-.4V26.21a.43.43,0,0,1,.17-.33c.08-.08.16-.16.24-.16h0a.29.29,0,0,0,.25-.09h-2a.27.27,0,0,1,.24.09h0c.08,0,.16.08.25.16a.42.42,0,0,1,.16.33c0,.16.08.32.08.57v2.77a1.2,1.2,0,0,0,.33.74,1.92,1.92,0,0,0,1.3.41H82c.33,0,.57-.09.74-.09h0a1.33,1.33,0,0,0,.57-.32h0a1.17,1.17,0,0,0,.24-.33h0a.08.08,0,0,1,.09-.08c0-.08.08-.16.08-.33h0V26.69h0v-.08c0-.24,0-.4.08-.49A.42.42,0,0,1,84,25.8c.08-.08.17-.17.25-.17h0c.08,0,.16,0,.16-.08H83c0,.08,0,.08.08.17Z" transform="translate(-1 -2.12)" style="fill:#fff;fill-rule:evenodd"/><path d="M89.26,30a.42.42,0,0,1-.16.33c-.09.08-.17.16-.25.16a.29.29,0,0,0-.24.08h2c-.08,0-.17-.08-.25-.08l-.24-.24c-.08-.08-.08-.17-.08-.33V26.29a.62.62,0,0,1,.16-.41c.08-.08.16-.16.24-.16s.17,0,.17-.09h-2a.27.27,0,0,1,.24.09c.08,0,.16.08.25.16a.42.42,0,0,1,.16.33c0,.16.08.32.08.57v2.69c0,.25-.08.41-.08.57Z" transform="translate(-1 -2.12)" style="fill:#fff"/><path d="M88.85,30.53c.08,0,.16-.08.25-.16a.42.42,0,0,0,.16-.33h0c0-.16.08-.32.08-.57V26.78a1.21,1.21,0,0,0-.08-.57.42.42,0,0,0-.16-.33c-.09-.08-.17-.16-.25-.16h0a.27.27,0,0,1-.24-.09h2c-.08,0-.17,0-.17.09h0c-.08,0-.16.08-.24.16a.62.62,0,0,0-.16.41V30c0,.16.08.25.08.33l.24.24h.08c.09,0,.17.08.25.08h-2c0-.08.08-.08.16-.08Zm1.39-.32.24.24h0c.09,0,.17.08.25.08v.08h-2v-.08c.08,0,.16,0,.16-.08h0c.08,0,.16-.08.25-.16a.44.44,0,0,0,.16-.33h0a4.76,4.76,0,0,0,.08-.57v-2.7a1.25,1.25,0,0,0-.08-.57.61.61,0,0,0-.16-.32c-.09-.08-.17-.17-.25-.17h0c-.08,0-.08,0-.16-.08v-.08h2v.08c-.08,0-.16,0-.16.08h0c-.09,0-.17.09-.25.17a.62.62,0,0,0-.16.41h0v3.67C90.16,30,90.16,30.12,90.24,30.21Z" transform="translate(-1 -2.12)" style="fill:#fff;fill-rule:evenodd"/><path d="M97.83,28.33a3.59,3.59,0,0,0-.81-.66l-.49-.24c-.58-.25-.82-.57-.82-1.06a.51.51,0,0,1,.08-.33c0-.08.08-.24.16-.24a1,1,0,0,1,.66-.33.89.89,0,0,1,.49.16,1.15,1.15,0,0,1,.41.41.63.63,0,0,1,.16.33c.08.08.08.24.16.49V25.47c-.08.16-.16.16-.24.16h-.17c-.08,0-.16-.08-.24-.08s-.33-.08-.41-.16h-.33a1.19,1.19,0,0,0-.89.33,1.46,1.46,0,0,0-.33.49,1.39,1.39,0,0,0-.08.57,1,1,0,0,0,.32.81,1.35,1.35,0,0,0,.33.25,4.59,4.59,0,0,1,.57.32c.25.17.49.25.57.33a.59.59,0,0,1,.33.33.61.61,0,0,1,.16.32.7.7,0,0,1,.09.41.82.82,0,0,1-.33.74,1,1,0,0,1-.74.32A1.28,1.28,0,0,1,95.38,30a2.3,2.3,0,0,1-.32-.9v1.39c.08-.08.16-.16.24-.16h.08a.9.9,0,0,0,.25.08,2.11,2.11,0,0,0,1.79-.08,1.5,1.5,0,0,0,.57-.66,1.38,1.38,0,0,0,.17-.65,1.13,1.13,0,0,0-.33-.65Z" transform="translate(-1 -2.12)" style="fill:#fff"/><path d="M97.83,28.33a1.72,1.72,0,0,1,.33.9,1.79,1.79,0,0,1-.17.65,2.09,2.09,0,0,1-.57.65,1.75,1.75,0,0,1-.73.25h-.33c-.16,0-.41-.08-.57-.08a.27.27,0,0,1-.16-.09.68.68,0,0,0-.25-.08H95.3a.29.29,0,0,0-.24.08L95,30.7V29.31c0,.08,0,.16.09.16a2.08,2.08,0,0,0,.32.74,1.61,1.61,0,0,0,.49.49,1.23,1.23,0,0,0,.57.16h.33a1.53,1.53,0,0,0,.41-.25,1.23,1.23,0,0,0,.33-.73.68.68,0,0,0-.09-.41c-.08-.16-.08-.24-.16-.33l-.33-.32a3.19,3.19,0,0,0-.57-.33,3,3,0,0,1-.57-.33c-.08-.08-.24-.16-.33-.24a1.07,1.07,0,0,1-.32-.82,1.41,1.41,0,0,1,.08-.57,1.69,1.69,0,0,1,.33-.49A.69.69,0,0,1,96,25.8a.72.72,0,0,1,.4-.08h.33c.08,0,.16.08.33.08h.08c.08,0,.08,0,.16.08h.25c.08,0,.08,0,.16-.08a.08.08,0,0,1,.08-.08V27.1c0-.08,0-.16-.08-.16s-.08-.25-.08-.33-.08-.24-.16-.32a1.89,1.89,0,0,0-.33-.41H97.1a.31.31,0,0,0-.25-.08h-.32a3.29,3.29,0,0,0-.41.08C96,26,96,26,95.87,26s-.16.17-.16.25a.48.48,0,0,0-.08.32,1.16,1.16,0,0,0,.81,1.06l.49.25a1,1,0,0,1,.9.41Zm.08,0a1.58,1.58,0,0,1,.25.9,1.79,1.79,0,0,1-.17.65,1.42,1.42,0,0,1-.57.65,1.57,1.57,0,0,1-.89.25,2.67,2.67,0,0,1-.9-.17.68.68,0,0,0-.25-.08h-.24l-.08.08H95V29.23h.09a5.44,5.44,0,0,0,.32.89,1.16,1.16,0,0,0,1,.66,1.29,1.29,0,0,0,.74-.25,1,1,0,0,0,.24-.73.74.74,0,0,0-.08-.41c-.08-.16-.08-.25-.16-.33a1.17,1.17,0,0,0-.33-.24h0a4.89,4.89,0,0,1-.57-.33,2.68,2.68,0,0,1-.57-.33h0c-.08-.08-.25-.16-.33-.24A1.08,1.08,0,0,1,95,27.1a1.11,1.11,0,0,1,.09-.57,1.86,1.86,0,0,1,.32-.49,1.25,1.25,0,0,1,.9-.32h.33a1.5,1.5,0,0,1,.41.16c.08,0,.08,0,.16.08h.24l.09-.08h.08v1.39h-.08c-.09-.25-.09-.41-.17-.49s-.08-.25-.16-.33h0a1,1,0,0,0-.41-.41h0a1.18,1.18,0,0,0-.49-.16.93.93,0,0,0-.65.24h0c-.08.09-.08.17-.17.25h0c0,.08-.08.24-.08.32,0,.41.25.74.82,1l.49.25c.73-.08,1.06.16,1.22.41Z" transform="translate(-1 -2.12)" style="fill:#fff;fill-rule:evenodd"/><path d="M106.73,29.72c-.08.16-.16.24-.24.4a1.69,1.69,0,0,1-.49.33,2.34,2.34,0,0,1-.74.08,1.92,1.92,0,0,1-.73-.16,1,1,0,0,1-.41-.41.62.62,0,0,1-.08-.41V27.92h.24a1.06,1.06,0,0,1,.49.08.44.44,0,0,1,.33.16.46.46,0,0,1,.16.33c0,.08.08.25.08.33V27c0,.16-.08.25-.08.33s-.08.16-.16.24a.44.44,0,0,1-.33.17c-.08,0-.33.08-.49.08H104V25.55h.89a1.66,1.66,0,0,1,.66.08.67.67,0,0,1,.41.17.78.78,0,0,1,.32.41c.08.08.08.24.17.4l-.09-1.06h-3.75a.29.29,0,0,1,.24.08c.09,0,.17.09.25.17a.42.42,0,0,1,.16.32c0,.17.08.33.08.57v2.7a1.23,1.23,0,0,1-.08.57.44.44,0,0,1-.16.33c-.08.08-.16.16-.25.16s-.16,0-.16.08h4.16l.09-1.3c-.17.16-.17.32-.25.49Z" transform="translate(-1 -2.12)" style="fill:#fff"/><path d="M105.83,30.53c.08,0,.17,0,.17-.08a1.25,1.25,0,0,0,.49-.33,1.75,1.75,0,0,0,.24-.4h0c0-.09.08-.17.08-.25s.08-.16.08-.24l-.08,1.3h-1Zm-.57,0a1.88,1.88,0,0,0,.74-.08,1.69,1.69,0,0,0,.49-.33c.08-.08.16-.24.24-.32h0c.08-.08.08-.25.16-.49H107l-.09,1.39h-4.24v-.09c.08,0,.16,0,.16-.08s.17-.08.25-.16h0a.42.42,0,0,0,.16-.33,4.45,4.45,0,0,0,.08-.57V26.78a1.21,1.21,0,0,0-.08-.57.6.6,0,0,0-.16-.33c-.08-.08-.17-.16-.25-.16h0c-.08,0-.08,0-.16-.09v-.08h3.84l.08,1.14h-.08a.62.62,0,0,0-.17-.4A.61.61,0,0,0,106,26a.66.66,0,0,0-.41-.16c-.17,0-.41-.08-.66-.08h-.81v2.2h.24c.25,0,.41,0,.49-.08s.17-.08.25-.17.08-.16.16-.24h0c0-.08.08-.16.08-.33h.08v1.8h-.08c0-.16-.08-.25-.08-.33s-.08-.24-.16-.32-.17-.17-.25-.17a2.81,2.81,0,0,0-.49-.08h-.24v1.55a3.29,3.29,0,0,0,.08.41,1,1,0,0,0,.41.41A1.25,1.25,0,0,0,105.26,30.53Zm-.49,0a.28.28,0,0,1-.16-.08.9.9,0,0,1-.41-.41.62.62,0,0,1-.08-.41V28h.73a.42.42,0,0,1,.33.16.46.46,0,0,1,.16.33v.08c0,.08.08.17.08.25V27a.32.32,0,0,1-.08.25v.08c0,.08-.08.16-.16.24a.43.43,0,0,1-.33.17H104V25.47h1.55a.66.66,0,0,1,.41.16.87.87,0,0,1,.32.41c0,.08.08.08.08.17s.09.16.09.24l-.09-1.06h-3.75a.29.29,0,0,1,.24.08h0c.09,0,.17.08.25.16a.46.46,0,0,1,.16.33c0,.16.08.33.08.57v2.7a1.25,1.25,0,0,1-.08.57.42.42,0,0,1-.16.32c-.08.09-.16.17-.25.17h0c-.08,0-.16,0-.16.08h2.61A.89.89,0,0,1,104.77,30.53Z" transform="translate(-1 -2.12)" style="fill:#fff;fill-rule:evenodd"/><path d="M114.08,28.33a3.45,3.45,0,0,0-.82-.66l-.49-.24a1.1,1.1,0,0,1-.81-1.06A.51.51,0,0,1,112,26c0-.08.08-.24.16-.24a1,1,0,0,1,.65-.33.86.86,0,0,1,.49.16,1,1,0,0,1,.41.41.66.66,0,0,1,.17.33c.08.08.08.24.16.49V25.47a.23.23,0,0,1-.25.16h-.16c-.08,0-.16-.08-.24-.08s-.33-.08-.41-.16h-.33a1.22,1.22,0,0,0-.9.33,1.59,1.59,0,0,0-.32.49,1.34,1.34,0,0,0-.17.57,1,1,0,0,0,.33.81,1,1,0,0,0,.33.25c.08.08.32.16.57.32s.49.25.57.33a.66.66,0,0,1,.33.33.61.61,0,0,1,.16.32.77.77,0,0,1,.08.41.8.8,0,0,1-.33.74,1,1,0,0,1-.73.32,1.26,1.26,0,0,1-1.06-.65,2.15,2.15,0,0,1-.33-.9v1.39c.08-.08.16-.16.25-.16h.08a.81.81,0,0,0,.24.08,1.65,1.65,0,0,0,.9.16,1.68,1.68,0,0,0,.9-.24,1.56,1.56,0,0,0,.57-.66,1.52,1.52,0,0,0,.16-.65c.09-.08-.08-.41-.24-.65Z" transform="translate(-1 -2.12)" style="fill:#fff"/><path d="M114.16,28.33a1.72,1.72,0,0,1,.33.9,1.79,1.79,0,0,1-.17.65,1.42,1.42,0,0,1-.57.65h0a1.58,1.58,0,0,1-.9.25,2.66,2.66,0,0,1-.89-.17.68.68,0,0,0-.25-.08h-.24l-.09.08h-.08V29.23h.08a6.41,6.41,0,0,0,.33.89,1.16,1.16,0,0,0,1,.66,1.29,1.29,0,0,0,.74-.25,1,1,0,0,0,.24-.73.74.74,0,0,0-.08-.41c-.08-.16-.08-.25-.16-.33h0a1.34,1.34,0,0,0-.33-.24,4.89,4.89,0,0,1-.57-.33,2.68,2.68,0,0,1-.57-.33c-.09-.08-.25-.16-.33-.24h0a1,1,0,0,1-.33-.82,1.1,1.1,0,0,1,.17-.57,1.86,1.86,0,0,1,.32-.49,1.25,1.25,0,0,1,.9-.32H113a1.5,1.5,0,0,1,.41.16c.08,0,.08,0,.16.08h.24l.09-.08H114v1.39h-.08c-.09-.25-.09-.41-.17-.49s-.08-.25-.16-.33h0a1,1,0,0,0-.41-.41h0a1.18,1.18,0,0,0-.49-.16.93.93,0,0,0-.65.24h0c-.08.09-.08.17-.17.25h0c0,.08-.08.24-.08.32,0,.41.25.74.82,1l.49.25a1.08,1.08,0,0,1,1.06.41Zm-.9-.66a1.71,1.71,0,0,1,.82.66h0a1.72,1.72,0,0,1,.33.9,2,2,0,0,1-.17.65,2.09,2.09,0,0,1-.57.65,1.8,1.8,0,0,1-.73.25h-.33c-.16,0-.41-.08-.57-.08a.31.31,0,0,1-.17-.09.62.62,0,0,0-.24-.08h-.08a.31.31,0,0,0-.25.08l-.08.09V29.31c0,.08,0,.16.08.16a3,3,0,0,0,.33.74,1.51,1.51,0,0,0,.49.49,1.2,1.2,0,0,0,.57.16H113a1.71,1.71,0,0,0,.41-.25,1.22,1.22,0,0,0,.32-.73.75.75,0,0,0-.08-.41c-.08-.16-.08-.24-.16-.33l-.33-.32a3.59,3.59,0,0,0-.57-.33,2.68,2.68,0,0,1-.57-.33c-.08-.08-.25-.16-.33-.24a1.49,1.49,0,0,1-.33-.82,1.55,1.55,0,0,1,.17-.57,1.86,1.86,0,0,1,.32-.49c.17-.16.25-.24.41-.24a1.08,1.08,0,0,1,.49-.08h.33c.08,0,.16.08.24.08h.17c.08,0,.08,0,.16.08h.25c.08,0,.08,0,.16-.08a.08.08,0,0,1,.08-.08V27.1c0-.08,0-.16-.08-.16s-.08-.25-.08-.33-.08-.24-.17-.32a1.62,1.62,0,0,0-.32-.41h-.08a.32.32,0,0,0-.25-.08h-.33a3.46,3.46,0,0,0-.4.08c-.09.08-.17.08-.25.16s-.16.17-.16.25a.48.48,0,0,0-.08.32,1.16,1.16,0,0,0,.81,1.06Z" transform="translate(-1 -2.12)" style="fill:#fff;fill-rule:evenodd"/><path d="M3.12,23.76A27.67,27.67,0,0,1,1,19.92C8,6.37,19.86,2.69,26.8,2.12,24.27,2.77,9.65,5.79,3.12,23.76Z" transform="translate(-1 -2.12)" style="fill:#fff"/><path d="M3.69,24.57a31,31,0,0,0,2.7,3.35c5-21.47,22.21-25.15,24.74-25.8,0,0-20.66,1-27.44,22.45Z" transform="translate(-1 -2.12)" style="fill:#fff"/><path d="M20.68,7.34A32.57,32.57,0,0,0,7,28.57a44.32,44.32,0,0,0,3.43,3.11c.33-4.9,3.19-23.27,24.09-29.23C34.47,2.36,28.76,2.12,20.68,7.34Z" transform="translate(-1 -2.12)" style="fill:#fff"/><path d="M11.45,28.57a34.31,34.31,0,0,1,.74-3.43,33.59,33.59,0,0,0,19.1,12.74,32,32,0,0,1-14.61-5.06A30.81,30.81,0,0,1,11.45,28.57Z" transform="translate(-1 -2.12)" style="fill:#fff"/><path d="M15.94,33.14A30.93,30.93,0,0,0,27,37.8a32.61,32.61,0,0,1-16-5.88c0-.9.17-1.71.25-2.61A29.31,29.31,0,0,0,15.94,33.14Z" transform="translate(-1 -2.12)" style="fill:#fff"/><path d="M12.43,24.41a23.38,23.38,0,0,1,1.39-3.76,33.13,33.13,0,0,0,20.9,17S22.39,37.55,12.43,24.41Z" transform="translate(-1 -2.12)" style="fill:#fff"/><path d="M36.52,28.33h.32l-2.12,4-.25-.82h-.08C27.45,31.43,21.66,26.29,21.66,20S27.53,8.49,34.56,8.49h0l.24-.66,2.12,3.92H36.6a6.09,6.09,0,0,0-2.45-1.87,1,1,0,0,0-.49-.09C27.7,10.2,23,14.61,23,20s4.9,9.88,11,10.21a.68.68,0,0,0,.57-.17,6.74,6.74,0,0,0,1.88-1.71Z" transform="translate(-1 -2.12)" style="fill:#fff"/></svg>