<svg xmlns="http://www.w3.org/2000/svg" width="79.94" height="33.09" viewBox="0 0 79.94 33.09"><rect width="79.94" height="33.09" style="fill:none"/><path d="M26.23,24.17h-6L16.56,17.8h6ZM16.54,7.4l3,5.19L12.89,24.17h-6ZM30,15.6l-1-1.94L27.88,15.6Zm.42.82H27.45l-.76,1.38H25.58L29,11.73l3.26,6.07H31.1Zm4.14-1.6-1.89-2.73h1.18L35.12,14l1.37-1.93h1.18l-2,2.73,2.07,3H36.61L35.1,15.61,33.54,17.8H32.37Zm5.21,3h-1V12.09h1Zm5.15-4.87-.84.42a1.23,1.23,0,0,0-.45-.44,1.18,1.18,0,0,0-.57-.12,1.24,1.24,0,0,0-.71.2.61.61,0,0,0-.29.5c0,.29.25.51.75.68l.68.23a3,3,0,0,1,1.22.68,1.41,1.41,0,0,1,.39,1,1.61,1.61,0,0,1-.63,1.3,2.67,2.67,0,0,1-3,.08,1.93,1.93,0,0,1-.71-1.24l1-.19a1.33,1.33,0,0,0,.25.69,1.19,1.19,0,0,0,.93.37,1.17,1.17,0,0,0,.8-.27.84.84,0,0,0,.32-.68.64.64,0,0,0-.06-.31.76.76,0,0,0-.16-.25,1.23,1.23,0,0,0-.31-.22,3.75,3.75,0,0,0-.44-.2l-.66-.23c-.94-.33-1.4-.81-1.4-1.44a1.27,1.27,0,0,1,.58-1.07A2.34,2.34,0,0,1,43,12a2.12,2.12,0,0,1,1.85,1M50.13,17h.64a1.88,1.88,0,0,0,1-.23.75.75,0,0,0,0-1.25,2,2,0,0,0-1.16-.25h-.53Zm0-2.45h.33a1.35,1.35,0,0,0,.84-.21.74.74,0,0,0,.27-.62.7.7,0,0,0-.27-.61,1.25,1.25,0,0,0-.8-.22h-.37Zm-1,3.26V12.09h1a5.32,5.32,0,0,1,1.1.09,1.81,1.81,0,0,1,.69.3,1.76,1.76,0,0,1,.46.55,1.33,1.33,0,0,1,.17.66,1.28,1.28,0,0,1-.56,1,1.64,1.64,0,0,1,.86.54,1.36,1.36,0,0,1,.32.9,1.42,1.42,0,0,1-.57,1.13,1.9,1.9,0,0,1-.76.39,5.47,5.47,0,0,1-1.17.11Zm8.51-2.2-1-1.94L55.52,15.6Zm.42.82H55.1l-.76,1.38H53.22l3.38-6.07,3.27,6.07H58.74Zm2.52,1.38V11.7l5,4.36v-4h1v6.06l-5-4.35v4Zm8.33-3.43,2.67-2.28h1.37l-3.09,2.59,3.11,3.12H71.56L69.1,15.26l-.22.18V17.8h-1V12.09h1Z" transform="translate(-0.02 -0.08)" style="fill:#7f1416"/></svg>