<svg xmlns="http://www.w3.org/2000/svg" width="79.94" height="33.09" viewBox="0 0 79.94 33.09"><rect width="79.94" height="33.09" style="fill:none"/><path d="M69.45,16.62h-.09a1.2,1.2,0,0,0-.75.19.7.7,0,0,0-.23.58.48.48,0,0,0,.09.31.27.27,0,0,0,.24.12.55.55,0,0,0,.47-.3,2.93,2.93,0,0,0,.27-.9M69.2,18a1.35,1.35,0,0,1-.41.32,1.06,1.06,0,0,1-.48.1,1,1,0,0,1-.69-.26.9.9,0,0,1-.26-.67,1.4,1.4,0,0,1,.43-1.15A2.29,2.29,0,0,1,69.21,16h.36c0-.11,0-.2.05-.27a1.23,1.23,0,0,0,0-.17.39.39,0,0,0-.09-.28.36.36,0,0,0-.27-.09.41.41,0,0,0-.31.11.81.81,0,0,0-.15.35h-1a1.1,1.1,0,0,1,.41-.8,1.72,1.72,0,0,1,1-.25,1.9,1.9,0,0,1,1.05.23.87.87,0,0,1,.33.75c0,.09,0,.18,0,.29a2.1,2.1,0,0,1-.06.33l-.3,1.42c0,.12,0,.25-.07.37s0,.25,0,.38h-1Zm-3.44,0a.89.89,0,0,1-.35.32,1,1,0,0,1-.49.1,1,1,0,0,1-.7-.23,1,1,0,0,1-.23-.72c0-.12,0-.29,0-.48s.07-.42.12-.65a5.89,5.89,0,0,1,.18-.65,1.81,1.81,0,0,1,.2-.46,1.27,1.27,0,0,1,.43-.48,1.19,1.19,0,0,1,.58-.15.92.92,0,0,1,.85.48l.44-2h1l-1,4.7c0,.07,0,.16-.05.26a2.79,2.79,0,0,0,0,.32H65.71Zm.08-2.71a.41.41,0,0,0-.27.1.71.71,0,0,0-.19.36c-.09.3-.17.58-.23.88a4.39,4.39,0,0,0-.08.7.45.45,0,0,0,.09.3.33.33,0,0,0,.26.1.37.37,0,0,0,.25-.1.79.79,0,0,0,.21-.3,2.25,2.25,0,0,0,.1-.33c0-.13.07-.29.11-.48s.06-.35.08-.48,0-.25,0-.33a.46.46,0,0,0-.09-.31.33.33,0,0,0-.26-.11m-3.41-.08a.41.41,0,0,0-.28.1.87.87,0,0,0-.19.31c0,.05,0,.11-.06.21a2.55,2.55,0,0,0-.07.32,2.43,2.43,0,0,0-.06.31,7,7,0,0,0-.17.9.5.5,0,0,0,.09.33.35.35,0,0,0,.28.12.41.41,0,0,0,.29-.1.76.76,0,0,0,.2-.31c0-.08.06-.2.09-.36l.13-.54c0-.19.07-.35.09-.49a2.6,2.6,0,0,0,0-.35.49.49,0,0,0-.09-.32.33.33,0,0,0-.28-.13m-1.84,2a2,2,0,0,1,0-.4,2.94,2.94,0,0,1,.1-.52,3.91,3.91,0,0,1,.17-.62,2.12,2.12,0,0,1,.19-.42,1.33,1.33,0,0,1,.55-.51,1.76,1.76,0,0,1,.82-.16,1.5,1.5,0,0,1,1,.31,1.18,1.18,0,0,1,.35.91,3,3,0,0,1,0,.41,3.43,3.43,0,0,1-.09.49,5.79,5.79,0,0,1-.17.61,1.64,1.64,0,0,1-.21.44,1.43,1.43,0,0,1-.53.51,1.82,1.82,0,0,1-.82.16,1.52,1.52,0,0,1-1-.31,1.08,1.08,0,0,1-.37-.9m-2.45,1.14.61-2.88c0-.13.06-.28.08-.41a3,3,0,0,0,.06-.4h1l-.09.53a1.4,1.4,0,0,1,.42-.42,1.1,1.1,0,0,1,.56-.13h.15l-.19.91h0l-.26,0a.74.74,0,0,0-.56.22,1.56,1.56,0,0,0-.31.73l-.4,1.87ZM57,16.62h-.09a1.15,1.15,0,0,0-.74.19.7.7,0,0,0-.23.58.43.43,0,0,0,.09.31.26.26,0,0,0,.24.12.53.53,0,0,0,.46-.3,2.93,2.93,0,0,0,.27-.9M56.76,18a1.31,1.31,0,0,1-.4.32,1.09,1.09,0,0,1-.48.1,1,1,0,0,1-.69-.26.9.9,0,0,1-.26-.67,1.4,1.4,0,0,1,.43-1.15A2.26,2.26,0,0,1,56.77,16h.37a1.76,1.76,0,0,0,0-.27,1.23,1.23,0,0,0,0-.17.35.35,0,0,0-.09-.28.33.33,0,0,0-.27-.09.4.4,0,0,0-.3.11.7.7,0,0,0-.15.35h-1a1.1,1.1,0,0,1,.42-.8,1.72,1.72,0,0,1,1-.25,2,2,0,0,1,1,.23.87.87,0,0,1,.33.75c0,.09,0,.18,0,.29l-.06.33-.31,1.42-.06.37c0,.13,0,.25,0,.38h-1Zm-5.89.38L52,13.13h1.49a2.28,2.28,0,0,1,1.27.27,1,1,0,0,1,.39.87,1.54,1.54,0,0,1-.31,1,1.31,1.31,0,0,1-.9.45.93.93,0,0,1,.59.34,1.13,1.13,0,0,1,.2.69,2.08,2.08,0,0,1-.16.8,1.38,1.38,0,0,1-.44.56,2,2,0,0,1-.63.25,8,8,0,0,1-1.2.07Zm1.29-.83h.48a1.08,1.08,0,0,0,.76-.22.9.9,0,0,0,.24-.7.55.55,0,0,0-.18-.46,1,1,0,0,0-.61-.13H52.5Zm.49-2.32H53a1.29,1.29,0,0,0,.8-.19.8.8,0,0,0,.24-.64.45.45,0,0,0-.18-.4,1.1,1.1,0,0,0-.6-.12H53Zm-4.82,3.15.64-3H47.9l.14-.65h.58l.11-.54a1.58,1.58,0,0,1,.41-.86,1.17,1.17,0,0,1,.81-.27h.32l.33,0-.15.71-.14,0h-.1a.42.42,0,0,0-.29.09.68.68,0,0,0-.15.32l-.11.54h.6l-.13.65h-.62l-.64,3Zm-1.4-3.14a.43.43,0,0,0-.28.1.65.65,0,0,0-.18.31,1.13,1.13,0,0,0-.06.21,2.55,2.55,0,0,0-.07.32c0,.07,0,.17-.07.31a8.23,8.23,0,0,0-.16.9.5.5,0,0,0,.09.33.32.32,0,0,0,.27.12.39.39,0,0,0,.28-.1.75.75,0,0,0,.19-.31c0-.08.06-.2.09-.36a5.52,5.52,0,0,0,.12-.54c0-.19.06-.35.09-.49a1.59,1.59,0,0,0,0-.35.49.49,0,0,0-.09-.32.25.25,0,0,0-.25-.13m-1.8,2a1.94,1.94,0,0,1,0-.4c0-.15.06-.33.09-.52a5.38,5.38,0,0,1,.17-.62,1.65,1.65,0,0,1,.2-.42,1.2,1.2,0,0,1,.54-.51,1.66,1.66,0,0,1,.79-.16,1.45,1.45,0,0,1,1,.31,1.18,1.18,0,0,1,.34.91,3,3,0,0,1,0,.41,3.43,3.43,0,0,1-.09.49,5.79,5.79,0,0,1-.17.61,1.65,1.65,0,0,1-.2.44,1.36,1.36,0,0,1-.53.51,1.73,1.73,0,0,1-.8.16,1.46,1.46,0,0,1-1-.31,1.1,1.1,0,0,1-.35-.9M40,18.42l1.15-5.29H42.2l-.65,3,1.18-1.36h1.13l-1.38,1.63.75,2.05h-1.1l-.64-2.09L41,18.41H40Zm-3.43,0,.65-3a3,3,0,0,0,.08-.39c0-.11,0-.2,0-.29h1l-.06.43a1.14,1.14,0,0,1,.4-.39,1.19,1.19,0,0,1,.56-.12.92.92,0,0,1,.63.2.75.75,0,0,1,.21.58,2.46,2.46,0,0,1,0,.26l0,.23-.54,2.51H38.42L39,15.91a.75.75,0,0,0,0-.17.34.34,0,0,0,0-.09.29.29,0,0,0-.07-.22.28.28,0,0,0-.2-.07.47.47,0,0,0-.37.21,1.16,1.16,0,0,0-.23.56l-.51,2.3H36.55Zm-1.14-1.8h-.1a1.18,1.18,0,0,0-.75.19.67.67,0,0,0-.23.58.43.43,0,0,0,.09.31.27.27,0,0,0,.24.12.54.54,0,0,0,.47-.3,2.45,2.45,0,0,0,.28-.9M35.16,18a1.35,1.35,0,0,1-.41.32,1.16,1.16,0,0,1-.49.1,1,1,0,0,1-.7-.26.9.9,0,0,1-.27-.67,1.44,1.44,0,0,1,.43-1.15A2.36,2.36,0,0,1,35.16,16h.38c0-.11,0-.2,0-.27a1.23,1.23,0,0,0,0-.17.39.39,0,0,0-.09-.28.34.34,0,0,0-.28-.09.4.4,0,0,0-.3.11.71.71,0,0,0-.16.35h-1a1.11,1.11,0,0,1,.43-.8,1.75,1.75,0,0,1,1-.25,1.91,1.91,0,0,1,1.06.23.84.84,0,0,1,.33.75c0,.09,0,.18,0,.29s0,.21-.07.33l-.3,1.42a2.38,2.38,0,0,0-.06.37c0,.13,0,.25,0,.38h-1Zm-6,.38,1.15-5.29h1.5a2.34,2.34,0,0,1,1.29.27,1,1,0,0,1,.4.87,1.49,1.49,0,0,1-.32,1,1.28,1.28,0,0,1-.9.45,1,1,0,0,1,.6.34,1.13,1.13,0,0,1,.2.69,1.91,1.91,0,0,1-.17.8,1.38,1.38,0,0,1-.44.56,2,2,0,0,1-.63.25,8.33,8.33,0,0,1-1.22.07Zm1.3-.83H31a1.11,1.11,0,0,0,.77-.22.87.87,0,0,0,.25-.7.58.58,0,0,0-.18-.46,1.1,1.1,0,0,0-.62-.13h-.37Zm.5-2.32h.39a1.33,1.33,0,0,0,.8-.19.81.81,0,0,0,.25-.64.48.48,0,0,0-.18-.4,1.19,1.19,0,0,0-.61-.12H31.3Z" transform="translate(-0.02 -0.08)" style="fill:#f05323"/><path d="M21.67,11.17c-.1.53-.1.53-.17.87a5.28,5.28,0,0,1-.69,1.28l0,0a6.5,6.5,0,0,1-2.91,1.88l-.25.07v.06a.51.51,0,0,0,.32.06l.23,0a5.32,5.32,0,0,1,1.2.52s.21.16.5.42l.27.32a3.69,3.69,0,0,1,.42.87l.11.47c0,.17,0,.17,0,.62,0,.22-.07.44-.11.66s-.08.22-.18.48a6.15,6.15,0,0,1-.81,1.26,11.7,11.7,0,0,1-1.3,1.13.58.58,0,0,0-.25.15,13.36,13.36,0,0,1-2.2.94c-.47.09-.94.19-1.43.25-.89,0-.89,0-1.14.08-.79,0-3.81.17-3.86.16a.2.2,0,0,1,0-.2c.81-.23,1.64-.5,2.46-.7l1.58-.48c.62-.13,1.23-.37,1.84-.53l1.55-.46a17.12,17.12,0,0,0,1.82-.53.2.2,0,0,0,0-.11l0,0c-.05,0-.84.2-4.49,1.08l-.05,0c-.67.13-1.34.32-2,.48l-.14.05c-2.54.6-2.54.6-2.6.63H9.26c0-.07-.09-.08-.07-.18l.66-.39c.13-.05,1.28-.71,1.4-.76.92-.55,1.88-1.07,2.8-1.61l2.33-1.29.08-.06c.59-.31,1.17-.65,1.75-1a4.83,4.83,0,0,0,.8-.45.09.09,0,0,0-.06-.15L17.27,18a.4.4,0,0,0-.17.09c-1.61.82-1.61.82-1.74.87s-.66.35-.7.38c-.7.35-1.39.71-2.08,1.09l-.06,0c-.38.25-.83.41-1.21.65-.67.33-1.35.68-2,1-.08,0-.59.37-.53,0l.7-.66a1.8,1.8,0,0,1,.28-.25,5,5,0,0,1,.85-.81s.05-.05.06-.09c.61-.56,1.23-1.14,1.81-1.74,1.75-1.67,3.51-3.34,5.27-5a.52.52,0,0,1,.18-.18c1.07-1,1.14-1.11,2.41-2.32.09-.06.09-.06.12-.11,0-.21-.12-.11-.24,0-.31.32-.65.6-1,.9a5.22,5.22,0,0,1-.48.46,10.81,10.81,0,0,1-1,.9,9.49,9.49,0,0,1-.82.73c-1,1-2.11,1.84-3.1,2.81-.49.39-.91.88-1.41,1.26-.13.14-.13.14-1,1a.24.24,0,0,1-.09.06c-1,.92-2,1.81-3,2.71-.12,0-.14,0-.14-.14Q10,19,11.78,16.34c.48-.73,1-1.48,1.48-2.2.36-.53.39-.59.52-.76C14.71,12,15.69,10.6,16.6,9.2c.11-.11.08-.18-.07-.17-.77,1.09-1.58,2.16-2.34,3.27-.13.16-.38.53-3,4.16-.06.1-1,1.37-1.05,1.45-.84,1.16-1.67,2.35-2.53,3.49a.12.12,0,0,1-.15,0v-.1c.61-1.59,1.26-3.18,1.92-4.74,1-2.43,1.93-4.88,2.92-7.3,0-.06,0-.06,0-.1a.14.14,0,0,0-.1,0c-.74,1.68-1.52,3.36-2.28,5,0,0-.82,1.81-1.05,2.26-.09.23-.17.38-.28.63-.64,1.35-1.26,2.74-1.88,4.11a.22.22,0,0,1-.22,0,7,7,0,0,1,.31-1.22c0-.06.11-.4.14-.47s.05-.18.35-1.35q.22-.87.48-1.74c0-.12,1.5-5.47,1.52-5.55s.09-.34.15-.51c.19-.75.39-1.45.54-2,0,0,0-.05.07-.08,2.64,0,5.3,0,8,0a6.8,6.8,0,0,1,2.39.53l.27.17a3.77,3.77,0,0,1,.49.42l.26.36c.05.12.09.25.14.38l.12.54c0,.14,0,.29,0,.46m4.24.69a9.21,9.21,0,0,1-.22,1.07c-.22.46-.22.46-.36.71a5.44,5.44,0,0,1-.91,1c-.33.25-.33.25-.69.5a14.11,14.11,0,0,1-1.35.67,2.17,2.17,0,0,0-.54.19s0,0,0,.06a3.44,3.44,0,0,1,1.58.58,4.5,4.5,0,0,1,.66.65,4.43,4.43,0,0,1,.56,1.05l.11.46c0,.24,0,.49,0,.74a4.66,4.66,0,0,1-.72,2c-.24.34-.24.34-.49.65a5.36,5.36,0,0,1-1.49,1.19,6.63,6.63,0,0,1-1.42.68l-.9.28a3.92,3.92,0,0,0-.74.15,4.64,4.64,0,0,0-.65.08c-3,.12-6,.07-9,.07,0-.06-.05-.15,0-.18,1.42-.07,2.86-.14,4.29-.18a6,6,0,0,0,.85,0A24.52,24.52,0,0,0,17.41,24c.06,0,.31-.08.69-.17a6.76,6.76,0,0,0,4.32-3.63,1.83,1.83,0,0,1,.11-.26l.13-.62c0-.52,0-.52,0-.72a3.25,3.25,0,0,0-.54-1.4l-.38-.43a3.61,3.61,0,0,0-2-.86c0-.06,0-.07.07-.09a3.37,3.37,0,0,0,.46-.15,6.17,6.17,0,0,0,3-2.45l.21-.48a6.4,6.4,0,0,0,.23-1.22c0-.19,0-.37,0-.55s-.07-.24-.1-.36A2.35,2.35,0,0,0,23,9.76,3.62,3.62,0,0,0,21.59,9a0,0,0,0,1,0,0,3.79,3.79,0,0,1,.89,0l.6.07.48.11A4.4,4.4,0,0,1,25,9.83l.37.34.32.48.15.46c0,.22,0,.48.06.75" transform="translate(-0.02 -0.08)" style="fill:#f05323;fill-rule:evenodd"/></svg>