<svg xmlns="http://www.w3.org/2000/svg" width="79.94" height="33.09" viewBox="0 0 79.94 33.09"><rect width="79.94" height="33.09" style="fill:none"/><polygon points="21.77 19.54 23.83 19.54 25.43 13.53 23.38 13.53 21.77 19.54" style="fill:#075c77;fill-rule:evenodd"/><polygon points="32.32 19.54 34.37 19.54 35.98 13.53 33.93 13.53 32.32 19.54" style="fill:#075c77;fill-rule:evenodd"/><polygon points="42.87 19.54 44.92 19.54 46.53 13.53 44.48 13.53 42.87 19.54" style="fill:#075c77;fill-rule:evenodd"/><path d="M30.44,15.67H32.5c.27-1.35-.6-2.05-2.62-2.05a4.19,4.19,0,0,0-4.45,3.13c-.47,1.79.47,2.89,2.67,2.89s3.53-.69,4.09-2.23H30.13a1.58,1.58,0,0,1-1.55,1c-1,0-1.38-.63-1.08-1.77a2.16,2.16,0,0,1,2.07-1.85c.61,0,.91.29.87.85" transform="translate(-0.02 -0.08)" style="fill:#075c77;fill-rule:evenodd"/><path d="M41,15.67h2.06c.27-1.35-.6-2.05-2.62-2.05A4.18,4.18,0,0,0,36,16.75c-.48,1.79.46,2.89,2.66,2.89s3.53-.69,4.09-2.23H40.68a1.58,1.58,0,0,1-1.55,1c-1,0-1.38-.63-1.07-1.77a2.14,2.14,0,0,1,2.07-1.85c.6,0,.9.29.86.85" transform="translate(-0.02 -0.08)" style="fill:#075c77;fill-rule:evenodd"/><path d="M13.86,10.28c2.75-2.73,6.07-3.43,7.4-1.58s.17,5.61-2.58,8.33-6.08,3.43-7.41,1.58-.16-5.6,2.59-8.33" transform="translate(-0.02 -0.08)" style="fill:#f99e29;fill-rule:evenodd"/><path d="M15.68,8.82a10.45,10.45,0,0,0-.91.79c-2.41,2.37-3.41,5.64-2.22,7.27s4.19,1,6.63-1.37a9.3,9.3,0,0,0,2.58-4.17,3.92,3.92,0,0,0-.5-2.62c-1.05-1.45-3.31-1.34-5.58.1" transform="translate(-0.02 -0.08)" style="fill:#b02a30;fill-rule:evenodd"/><path d="M17,18.39a5.23,5.23,0,0,1-3.91,1.25c.54,0,1-.58,1.35-1.39a14.51,14.51,0,0,0,.76-2.32,4.3,4.3,0,0,0,.14-2.13c-.22-.3-.72-.22-1.29.11-.27.15-.63.05-.2-.47a10.4,10.4,0,0,1,2.76-2c.68-.19,1.45.07,1.18.81-.18.53-2.55,6.76-.79,6.11M19,8.74c.33.33.12,1-.42,1.58s-1.26.74-1.58.42-.13-1,.42-1.58,1.28-.73,1.58-.42" transform="translate(-0.02 -0.08)" style="fill:#fff;fill-rule:evenodd"/><path d="M49.64,18.68l.47-1.76h1.35c1,0,1.49.18,1.31.89s-.68.87-1.62.87H49.64m1.11-4.13H52c1,0,1.4.11,1.24.72s-.68.75-1.67.75H50.35Zm-2.66,5.08h3.08a3.51,3.51,0,0,0,2.16-.5,2.12,2.12,0,0,0,.85-1.19c.22-.83-.15-1.38-1.1-1.52a1.87,1.87,0,0,0,1.64-1.33,1,1,0,0,0-.37-1.21,3,3,0,0,0-1.58-.26H49.7Z" transform="translate(-0.02 -0.08)" style="fill:#075c77;fill-rule:evenodd"/><path d="M58.05,17.7l0,.07A1.59,1.59,0,0,1,56.43,19c-.56,0-.79-.21-.69-.62s.63-.7,1.52-.7h.79m-.48,1.93H58.8a6.54,6.54,0,0,1,.2-.93L59.44,17c.3-1.1-.25-1.67-1.64-1.67s-2.22.47-2.49,1.25H56.5c.15-.4.5-.58,1.07-.58s.86.28.7.89l0,.07H57.6c-1.84,0-2.83.34-3.12,1.39-.22.82.3,1.35,1.39,1.35A2.66,2.66,0,0,0,57.7,19Z" transform="translate(-0.02 -0.08)" style="fill:#075c77;fill-rule:evenodd"/><path d="M59.87,19.63h1.25l.58-2.14a1.77,1.77,0,0,1,1.66-1.32c.73,0,1,.43.75,1.28l-.59,2.19h1.22l.69-2.57c.29-1.08-.26-1.71-1.47-1.71a2.56,2.56,0,0,0-2,.83l.15-.74H60.92c-.12.66-.21,1.07-.25,1.23l-.8,2.95" transform="translate(-0.02 -0.08)" style="fill:#075c77;fill-rule:evenodd"/><polygon points="65.81 19.55 67.02 19.55 67.63 17.29 69.26 19.55 70.92 19.55 69.08 17.15 71.58 15.36 70.01 15.36 67.69 17.05 68.63 13.54 67.42 13.54 65.81 19.55" style="fill:#075c77;fill-rule:evenodd"/></svg>