<svg xmlns="http://www.w3.org/2000/svg" width="180" height="180" viewBox="0 0 180 180"><rect width="180" height="180" style="fill:none"/><path d="M147.58,86S99.93,58.76,96.53,56.49a6.41,6.41,0,0,0-6.81,0L39.8,84.86c-6.8,4.53-1.13,9.07-1.13,9.07C55.57,104.5,64.6,117,67.59,125.11c4.49,1.27,8.87,3.1,13.36,4.35a52.51,52.51,0,0,0,22.5,1.26,130.48,130.48,0,0,0,13.77-3.4C125,108.74,142,98.42,147.58,93.93S147.58,86,147.58,86Z" style="fill:#fff"/><path d="M126.5,38.75H60.06a6.49,6.49,0,0,0-6.49,6.49V72.9L89.72,52.36a6.41,6.41,0,0,1,6.81,0C98.69,53.8,118.65,65.29,133,73.49c0-.13,0-.26,0-.39V45.24A6.49,6.49,0,0,0,126.5,38.75ZM65.1,46.69H59.43a1.7,1.7,0,0,1,0-3.4H65.1a1.7,1.7,0,1,1,0,3.4Zm15.6,0H75a1.7,1.7,0,1,1,0-3.4H80.7a1.7,1.7,0,0,1,0,3.4Zm15.6,0H90.63a1.7,1.7,0,1,1,0-3.4H96.3a1.7,1.7,0,0,1,0,3.4Zm15.6,0h-5.68a1.7,1.7,0,0,1,0-3.4h5.68a1.7,1.7,0,0,1,0,3.4Zm15.6,0h-5.68a1.7,1.7,0,0,1,0-3.4h5.68a1.7,1.7,0,0,1,0,3.4Z" style="fill:#fff"/><rect x="96.18" y="29.19" width="9.08" height="3.4" rx="1.7" style="fill:none"/><rect x="111.78" y="29.19" width="9.08" height="3.4" rx="1.7" style="fill:none"/><rect x="80.58" y="29.19" width="9.08" height="3.4" rx="1.7" style="fill:none"/><rect x="64.98" y="29.19" width="9.08" height="3.4" rx="1.7" style="fill:none"/><path d="M125.82,28.82a4.17,4.17,0,0,0-4.17-4.17H64.19A4.17,4.17,0,0,0,60,28.82v7.66h65.8ZM74.06,30.89a1.7,1.7,0,0,1-1.7,1.7H66.68a1.7,1.7,0,0,1-1.7-1.7h0a1.7,1.7,0,0,1,1.7-1.7h5.68a1.7,1.7,0,0,1,1.7,1.7Zm15.6,0a1.7,1.7,0,0,1-1.7,1.7H82.28a1.7,1.7,0,0,1-1.7-1.7h0a1.7,1.7,0,0,1,1.7-1.7H88a1.7,1.7,0,0,1,1.7,1.7Zm15.6,0a1.71,1.71,0,0,1-1.71,1.7H97.88a1.7,1.7,0,0,1-1.7-1.7h0a1.7,1.7,0,0,1,1.7-1.7h5.67a1.71,1.71,0,0,1,1.71,1.7Zm15.6,0a1.71,1.71,0,0,1-1.71,1.7h-5.67a1.7,1.7,0,0,1-1.7-1.7h0a1.7,1.7,0,0,1,1.7-1.7h5.67a1.71,1.71,0,0,1,1.71,1.7Z" style="fill:#fff"/><path d="M79.88,16.06h26.66a3.37,3.37,0,0,1,3.37,3.37v3.43a0,0,0,0,1,0,0H77a0,0,0,0,1,0,0V18.92A2.87,2.87,0,0,1,79.88,16.06Z" style="fill:#fff"/><path d="M50.34,74.93,35.66,83.82a5.72,5.72,0,0,0-1.16.86,4.26,4.26,0,0,0-.88,1.67,9.8,9.8,0,0,0,.07,6.06l.09-.26" style="fill:none;stroke:#fff;stroke-miterlimit:10"/><path d="M141.68,101.14a36.84,36.84,0,0,0-9.08,8" style="fill:none;stroke:#fff;stroke-miterlimit:10"/><path d="M13.86,146.75a18.27,18.27,0,0,1,8.63-9.23c4.52-2.26,9.88-2.16,14.72-1.18,5.36,1.08,10.42,3.18,15.56,5a54.09,54.09,0,0,0,15.79,3.24c10.53.36,20.77-2.81,30.8-5.58a134.48,134.48,0,0,1,15.18-3.49,63.62,63.62,0,0,1,16.31-.3c12.62,1.31,24.72,5.79,36.55,10.11a2.52,2.52,0,0,0,3.08-1.74,2.56,2.56,0,0,0-1.75-3.08c-11-4-22.1-8-33.72-9.76a71.67,71.67,0,0,0-17.25-.63,99.88,99.88,0,0,0-15.89,3c-10.23,2.69-20.49,6.35-31.18,6.47A47.11,47.11,0,0,1,55,136.77c-5.31-1.79-10.5-4-16-5.16-6.14-1.3-12.55-1.38-18.35,1.27A22.35,22.35,0,0,0,9.55,144.23a2.58,2.58,0,0,0,.89,3.42,2.51,2.51,0,0,0,3.42-.9Z" style="fill:#fff"/><path d="M6.43,156a61.12,61.12,0,0,1,16.69-2.25,74.93,74.93,0,0,1,16.78,2.35c5.54,1.3,11.14,2.51,16.86,2.2a70.69,70.69,0,0,0,16.08-3.17c5.31-1.57,10.58-3.34,16-4.4a63.42,63.42,0,0,1,16.9-.94,69.4,69.4,0,0,1,16.11,3.38c5.14,1.67,10.21,3.63,15.49,4.84a43,43,0,0,0,9.25,1.16A47.8,47.8,0,0,0,156,158.1c6-1.14,11.86-2.86,18-2.29a2.52,2.52,0,0,0,2.5-2.5,2.55,2.55,0,0,0-2.5-2.5c-10.94-1-21.28,4.73-32.25,2.95-5.41-.87-10.58-2.74-15.75-4.5a86.56,86.56,0,0,0-16.48-4.1,66.89,66.89,0,0,0-17.14,0A101.94,101.94,0,0,0,75.87,149c-5.21,1.58-10.47,3.27-15.88,4a45.32,45.32,0,0,1-16.44-1.18c-6.39-1.45-12.68-2.9-19.26-3.05a65.74,65.74,0,0,0-19.18,2.41C2,152,3.32,156.84,6.43,156Z" style="fill:#fff"/><path d="M16,164.14c9.46-2,19.16.57,28.56,1.8a55.23,55.23,0,0,0,14.3.31c5-.64,9.87-2.13,14.9-2.35,9.64-.43,18.64,4.22,28.21,4.71,5.23.27,10.42-.69,15.57-1.45a52.74,52.74,0,0,1,14.79-.37c10.73,1.44,21.12,5.67,32.11,4.69a2.58,2.58,0,0,0,2.5-2.5,2.51,2.51,0,0,0-2.5-2.5c-9.69.86-18.94-2.49-28.36-4.12a53.38,53.38,0,0,0-15.19-.64c-5.13.56-10.2,1.67-15.36,1.9-9.84.42-18.91-4.11-28.64-4.69-5.09-.31-10.06.87-15,1.81a50.09,50.09,0,0,1-14.41.54c-11-1.11-21.77-4.33-32.79-2-3.15.68-1.82,5.5,1.33,4.82Z" style="fill:#fff"/></svg>