<svg xmlns="http://www.w3.org/2000/svg" width="25.48" height="37.95" viewBox="0 0 25.48 37.95"><path d="M21.43,12.94" transform="translate(-7.33 -1.28)" style="fill:none;stroke:#231f20;stroke-miterlimit:10;stroke-width:0.25px"/><path d="M32.09,19.64v.21A17.73,17.73,0,0,1,21.26,36.3,17.77,17.77,0,0,1,10.77,20c0-.16,0-.32,0-.47,5.55-1.22,9.57-3.67,10.39-6.58C22,15.94,26.27,18.46,32.09,19.64Z" transform="translate(-7.33 -1.28)" style="fill:#fff"/><path d="M21.43,12.94" transform="translate(-7.33 -1.28)" style="fill:none;stroke:#231f20;stroke-miterlimit:10;stroke-width:0.25px"/><path d="M32.09,19.64v.21A17.73,17.73,0,0,1,21.26,36.3,17.77,17.77,0,0,1,10.77,20c0-.16,0-.32,0-.47,5.55-1.22,9.57-3.67,10.39-6.58C22,15.94,26.27,18.46,32.09,19.64Z" transform="translate(-7.33 -1.28)" style="fill:#fff"/><path d="M21.43,12.94" transform="translate(-7.33 -1.28)" style="fill:none;stroke:#231f20;stroke-miterlimit:10;stroke-width:0.25px"/><path d="M32.09,19.64v.21A17.73,17.73,0,0,1,21.26,36.3,17.77,17.77,0,0,1,10.77,20c0-.16,0-.32,0-.47,5.55-1.22,9.57-3.67,10.39-6.58C22,15.94,26.27,18.46,32.09,19.64Z" transform="translate(-7.33 -1.28)" style="fill:#fff"/><path d="M32.09,19.64v.21A17.73,17.73,0,0,1,21.26,36.3,17.77,17.77,0,0,1,10.77,20c0-.16,0-.32,0-.47,5.55-1.22,9.57-3.67,10.39-6.58C22,15.94,26.27,18.46,32.09,19.64Z" transform="translate(-7.33 -1.28)" style="fill:#fff"/><path d="M12.9,18.32s6.06-1.59,8.22-6.17c2.24,2.95,3.9,4.72,8.37,6.13-.32-3.33-1.17-8-1.17-8L14.67,10.1Z" transform="translate(-7.33 -1.28)" style="fill:#fff"/><polygon points="8.94 8.15 19.78 8.4 19.28 4.96 9.5 4.96 8.94 8.15" style="fill:#fff"/><polygon points="12.66 0.04 14.57 0 15.92 4.32 12.83 4.29 12.62 0.18 12.66 0.04" style="fill:#fff"/><path d="M7.46,37.48S18,34.76,21.92,37s9.18,2,10.62,1.06" transform="translate(-7.33 -1.28)" style="fill:none;stroke:#fff;stroke-miterlimit:10"/></svg>