<svg xmlns="http://www.w3.org/2000/svg" width="auto" height="35" viewBox="0 0 100.06 34.72"><polygon points="92.01 6.8 96.57 15.13 86.98 23.47 92.01 6.8" style="fill:#2d8c4c"/><polygon points="88.81 6.8 93.37 15.13 83.78 23.47 88.81 6.8" style="fill:#d8792d"/><path d="M25.76,23.05a2.25,2.25,0,0,0,.88-1.18l1.52-5A1.14,1.14,0,0,0,28,15.73a1.39,1.39,0,0,0-1.14-.46,2.43,2.43,0,0,0,1.42-.48,2,2,0,0,0,.87-1.17l1.52-5a1.32,1.32,0,0,0-.15-1.21,1.35,1.35,0,0,0-1.15-.48H9.58l-5,16.55H24.33a2.11,2.11,0,0,0,1.43-.44M12.18,10.21h13a1.23,1.23,0,0,1,.82.59,1.93,1.93,0,0,1,.1.63c0,.13,0,.24,0,.35l0,.1-.13.42a2.4,2.4,0,0,1-2,1.35H11.14ZM23.91,19A2.49,2.49,0,0,1,22,20.31H9.13l1-3.41h13a1.2,1.2,0,0,1,.95.88,1.43,1.43,0,0,1,0,.29.86.86,0,0,1,0,.16v.06Zm31-12L50,23.5H46.43l2-6.62H34.15l-2,6.62H28.62L33.56,7h3.55l-2,6.65H49.4l2-6.65Zm1,16.55H52.39l5-16.49h3.57ZM85.75,7l-1.47,4.9L80.82,23.47H77.27l2.34-7.88-9.37,7.9-5.66-8.92-2.67,8.9H58.36l3.82-12.7L63.29,7h.07l2.38,3.65,5.17,7.89L85.75,7Z" transform="translate(0.03 -0.14)" style="fill:#6e6f72"/><path d="M3.46,28l.64-2.43h.71a1.6,1.6,0,0,1,.44,0,.41.41,0,0,1,.36.31.48.48,0,0,1,0,.29.84.84,0,0,1-.19.33.66.66,0,0,1-.34.18.43.43,0,0,1,.37.61.81.81,0,0,1-.14.28.84.84,0,0,1-.23.23,1.1,1.1,0,0,1-.33.14,2.6,2.6,0,0,1-.59,0h-.7ZM4,27.64H4.5a.89.89,0,0,0,.21-.06.7.7,0,0,0,.17-.13A.61.61,0,0,0,5,27.26a.67.67,0,0,0,0-.2.21.21,0,0,0-.12-.14l-.14-.05-.22,0h-.3Zm.28-1.08h.17a1.16,1.16,0,0,0,.48-.08.36.36,0,0,0,.2-.26c0-.14,0-.24,0-.28a.89.89,0,0,0-.45-.08H4.46ZM7.37,28l.31-1.18H9.06L8.75,28H9.2l.64-2.43H9.39l-.23.89H7.78L8,25.54H7.56L6.92,28Zm5.54,0-.15-.64H11.64l-.48.64h-.48l2-2.54.7,2.54Zm-1-1h.79l-.14-.56s0-.08,0-.12,0-.1,0-.16a1.4,1.4,0,0,1-.1.16,1.25,1.25,0,0,1-.09.12Zm3.66-.13L15.27,28h-.44l.64-2.43h.64a2.46,2.46,0,0,1,.43,0,.54.54,0,0,1,.23.1.35.35,0,0,1,.14.24.66.66,0,0,1,0,.31.84.84,0,0,1-.28.46.9.9,0,0,1-.53.2L16.77,28h-.51l-.65-1.08h-.06Zm.11-.31h.07a1.36,1.36,0,0,0,.5-.07.4.4,0,0,0,.19-.27c0-.14,0-.23-.05-.28a.81.81,0,0,0-.45-.07h-.08ZM20.08,28l-.16-.64H18.81l-.5.64h-.48l2-2.54L20.54,28Zm-1-1h.79l-.14-.56a.45.45,0,0,1,0-.12s0-.1,0-.16a1.19,1.19,0,0,0-.08.16,1.25,1.25,0,0,1-.09.12ZM24,25.86l.1-.34h-2l-.09.34h.74L22.25,28h.45l.54-2.11ZM27.83,28l.64-2.43H28L27.37,28Zm2.27,0,.45-1.69.09.14a.65.65,0,0,0,.11.12l1.43,1.52.66-2.52h-.41L32,27.23a1.2,1.2,0,0,1-.11-.17,1.71,1.71,0,0,0-.11-.14l-1.39-1.49L29.71,28Zm6.13-2.11.07-.34H34.36l-.09.34H35L34.47,28h.47l.54-2.11ZM38.78,28l.1-.36H37.76l.2-.79h1.12l.09-.34H38.06l.15-.62h1.12l.09-.34H37.84L37.2,28h1.58Zm2.42-1.09L40.93,28h-.44l.64-2.43h.63a2.12,2.12,0,0,1,.42,0,.49.49,0,0,1,.23.1.35.35,0,0,1,.14.24.66.66,0,0,1,0,.31.84.84,0,0,1-.28.46.9.9,0,0,1-.53.2L42.41,28H41.9l-.65-1.08h0Zm.11-.31h.08a1.36,1.36,0,0,0,.5-.07.39.39,0,0,0,.18-.27c0-.14,0-.23,0-.28a.81.81,0,0,0-.45-.07H41.5Zm3,1.4.29-1.15h1.12l.09-.34H44.73l.15-.6H46l.09-.34H44.52L43.89,28Zm4.51,0-.15-.64H47.58l-.5.64H46.6l2-2.54.7,2.54Zm-1-1h.79l-.14-.56a.23.23,0,0,1,0-.12s0-.1,0-.16l-.09.16a.35.35,0,0,0-.08.12Zm5.75-1.29a1.33,1.33,0,0,0-.38-.18,1.41,1.41,0,0,0-.47-.07,1.8,1.8,0,0,0-.6.1,1.51,1.51,0,0,0-.55.28,2.1,2.1,0,0,0-.43.41,1.8,1.8,0,0,0-.25.5,1.11,1.11,0,0,0,0,.51,1,1,0,0,0,.21.42.83.83,0,0,0,.41.26,1.54,1.54,0,0,0,.58.1,1.91,1.91,0,0,0,.48-.06,2.45,2.45,0,0,0,.45-.17l.11-.45a2.23,2.23,0,0,1-.5.23,2.09,2.09,0,0,1-.49.08.8.8,0,0,1-.64-.27.67.67,0,0,1-.11-.65,1.19,1.19,0,0,1,.47-.67,1.36,1.36,0,0,1,.82-.26,1.18,1.18,0,0,1,.43.08,1.1,1.1,0,0,1,.36.21ZM56.3,28l.09-.36H55.27l.21-.79h1.11l.1-.34H55.57l.15-.62h1.12l.09-.34H55.37L54.73,28H56.3Zm4.54,0,.3-1.15h1.11l.1-.34H61.23l.16-.6H62.5l.1-.34H61L60.39,28Zm6-1.21a1.38,1.38,0,0,1-.25.5,2.15,2.15,0,0,1-.43.42,1.93,1.93,0,0,1-.56.27,1.78,1.78,0,0,1-.59.1,1.47,1.47,0,0,1-.56-.1,1,1,0,0,1-.42-.27,1,1,0,0,1-.21-.41.91.91,0,0,1,0-.49,1.89,1.89,0,0,1,.23-.5,1.77,1.77,0,0,1,.44-.42,1.84,1.84,0,0,1,.56-.28,2.08,2.08,0,0,1,.6-.09,1.69,1.69,0,0,1,.56.09,1.19,1.19,0,0,1,.42.28,1,1,0,0,1,.22.42,1,1,0,0,1,0,.48m-.48,0a.88.88,0,0,0,0-.36.55.55,0,0,0-.13-.29.76.76,0,0,0-.28-.2.92.92,0,0,0-.38-.06,1,1,0,0,0-.4.06,1.31,1.31,0,0,0-.39.2,1.33,1.33,0,0,0-.29.29,1.08,1.08,0,0,0-.17.36,1.11,1.11,0,0,0,0,.36.71.71,0,0,0,.14.29.61.61,0,0,0,.28.2.87.87,0,0,0,.37.07,1.85,1.85,0,0,0,.41-.07,1,1,0,0,0,.38-.2,1.44,1.44,0,0,0,.31-.29,1.59,1.59,0,0,0,.16-.36m2.59.12L68.66,28h-.43l.63-2.43h.64a2.46,2.46,0,0,1,.43,0,.58.58,0,0,1,.24.1.38.38,0,0,1,.13.24.66.66,0,0,1,0,.31.84.84,0,0,1-.28.46.9.9,0,0,1-.53.2L70.17,28h-.52L69,26.92h-.06Zm.11-.31h.08a1.29,1.29,0,0,0,.49-.07.37.37,0,0,0,.19-.27c0-.14,0-.23,0-.28a.81.81,0,0,0-.45-.07h-.08ZM76.59,28H77l0-2.54L75.78,27l0,.06c-.09.11-.15.21-.2.27s0-.16,0-.22a.55.55,0,0,0,0-.12L75,25.41,73.7,28h.42l.62-1.2.08-.18c0-.06.05-.1.06-.15s0,.11,0,.15a.9.9,0,0,0,0,.16l.39,1.33,1.07-1.3a1.77,1.77,0,0,0,.12-.17l.09-.17s0,.11,0,.17a.69.69,0,0,0,0,.16V28Zm5.18-1.21a2,2,0,0,1-.23.5,2.21,2.21,0,0,1-.44.42,1.93,1.93,0,0,1-.56.27,1.8,1.8,0,0,1-.6.1,1.47,1.47,0,0,1-.56-.1,1,1,0,0,1-.42-.27,1,1,0,0,1-.22-.41,1,1,0,0,1,0-.49,1.62,1.62,0,0,1,.23-.5,1.77,1.77,0,0,1,.44-.42,1.91,1.91,0,0,1,.55-.28,2.2,2.2,0,0,1,.61-.09,1.49,1.49,0,0,1,.54.09,1,1,0,0,1,.42.28.85.85,0,0,1,.22.42,1,1,0,0,1,0,.48m-.48,0a.88.88,0,0,0,0-.36.56.56,0,0,0-.14-.29.63.63,0,0,0-.28-.2.85.85,0,0,0-.37-.06,1.22,1.22,0,0,0-.42.06,1.16,1.16,0,0,0-.38.2,1.19,1.19,0,0,0-.3.29,1.08,1.08,0,0,0-.17.36.68.68,0,0,0,.12.65.61.61,0,0,0,.28.2.92.92,0,0,0,.38.07,2.07,2.07,0,0,0,.41-.07,1,1,0,0,0,.39-.2,1.19,1.19,0,0,0,.3-.29,1.66,1.66,0,0,0,.17-.36M83.58,28,84,26.28l.09.14a.32.32,0,0,0,.11.12l1.43,1.52.66-2.52h-.42l-.43,1.69-.12-.17-.11-.14-1.4-1.49L83.16,28Zm5.49,0,.1-.36H88.05l.2-.79h1.12l.09-.34H88.35l.15-.62h1.12l.09-.34H88.14L87.51,28h1.56Zm2.78,0,.3-1.12,1.31-1.31H93l-.82.82-.1.09-.09.11a1,1,0,0,1,0-.11.16.16,0,0,1,0-.08l-.37-.82h-.48l.6,1.32L91.39,28h.46Z" transform="translate(0.03 -0.14)" style="fill:#6e6f72"/><rect width="100.06" height="34.72" style="fill:none"/></svg>