
<!-- Generator: Adobe Illustrator 19.0.0, SVG Export Plug-In . SVG Version: 6.00 Build 0)  -->
<svg version="1.1" width="auto" height="50" id="layer" xmlns="http://www.w3.org/2000/svg" xmlns:xlink="http://www.w3.org/1999/xlink" x="0px" y="0px"
	 viewBox="-153 -46 652 652" style="enable-background:new -153 -46 652 652;" xml:space="preserve">
<style type="text/css">
	.st0{fill:#2B8B4B;}
	.st1{fill:#D9782D;}
	.st2{fill:#6D6E71;}
</style>
<polygon class="st0" points="439.4,206.9 468.8,260.6 407,314.4 "/>
<polygon class="st1" points="418.8,206.9 448.2,260.6 386.4,314.4 "/>
<path class="st2" d="M12.5,310.8c2.9-2.1,4.8-4.6,5.7-7.6L28,271c0.9-2.9,0.5-5.4-1.2-7.4c-1.7-2-4.1-3-7.4-3c3.2,0,6.3-1,9.2-3.1
	c2.9-2,4.8-4.5,5.6-7.5l9.8-32.2c0.9-3.1,0.6-5.7-1-7.8c-1.6-2.1-4.1-3.1-7.4-3.1H-91.8l-32.4,106.7H3.3
	C6.5,313.9,9.6,312.9,12.5,310.8 M-75,228h60.9H5h4c2.3,0.5,4.2,1.9,5.3,3.8c0.4,1.3,0.6,2.7,0.6,4.1c0,0.8-0.1,1.5-0.2,2.2
	l-0.2,0.7l-0.8,2.7c-2.2,4.7-6.9,8.1-12.6,8.7h-3.9h-78.9L-75,228z M0.6,284.9c-2.3,4.4-6.8,7.5-12.3,8.2h-4h-79l6.7-22h60.9h18.8
	h4.1c3.1,0.7,5.4,2.9,6.1,5.7c0.1,0.6,0.2,1.3,0.2,1.9c0,0.3,0,0.7-0.1,1l0,0.4L0.6,284.9z M200.5,207.3l-31.8,106.4h-22.9
	l12.8-42.7h-92l-12.8,42.7H31l31.8-106.4h22.9l-12.8,42.9h92l12.8-42.9H200.5z M207.2,314h-23l32-106.3h23L207.2,314z M399.3,207.5
	l-9.5,31.6l-22.3,74.4h-22.9l15.1-50.8l-60.4,50.9l-36.5-57.5l-17.2,57.4h-22.9l24.6-81.9l7.2-24.2h0.4l15.4,23.5l33.3,50.9
	L399.3,207.5L399.3,207.5z"/>
<path class="st2" d="M-131.2,342.5l4.1-15.7h4.6c1.3,0,2.3,0,2.8,0.2c0.6,0.1,1.1,0.3,1.4,0.6c0.5,0.4,0.8,0.8,0.9,1.4
	c0.2,0.6,0.2,1.2,0,1.9c-0.2,0.8-0.6,1.5-1.2,2.1c-0.6,0.6-1.3,1-2.2,1.2c1,0.1,1.7,0.6,2.2,1.3c0.4,0.7,0.5,1.6,0.2,2.6
	c-0.2,0.6-0.4,1.2-0.9,1.8c-0.4,0.6-0.9,1.1-1.5,1.5c-0.6,0.4-1.3,0.7-2.1,0.9c-0.8,0.2-2,0.3-3.8,0.3H-131.2z M-127.8,340.4h1
	c1,0,1.8,0,2.3-0.1c0.5-0.1,1-0.2,1.3-0.4c0.4-0.2,0.8-0.5,1.1-0.8c0.3-0.4,0.5-0.7,0.6-1.2c0.1-0.5,0.1-0.9,0-1.3
	c-0.1-0.4-0.4-0.7-0.8-0.9c-0.3-0.1-0.6-0.2-0.9-0.3c-0.4,0-0.8-0.1-1.4-0.1h-0.9h-1L-127.8,340.4z M-126,333.4h1.1
	c1.4,0,2.4-0.2,3.1-0.5c0.7-0.3,1.1-0.9,1.3-1.7c0.2-0.9,0.1-1.5-0.3-1.8c-0.5-0.3-1.4-0.5-2.9-0.5h-1.1L-126,333.4z M-106,342.5
	l2-7.6h8.9l-2,7.6h2.9l4.1-15.7H-93l-1.5,5.8h-8.9l1.5-5.8h-2.9l-4.1,15.7H-106z M-70.3,342.5l-1-4.1h-7.2l-3.1,4.1h-3.1l13-16.4
	l4.5,16.4H-70.3z M-76.9,336.3h5.1l-0.9-3.6c0-0.2-0.1-0.5-0.1-0.8c0-0.3-0.1-0.6-0.1-1c-0.2,0.3-0.4,0.7-0.6,1
	c-0.2,0.3-0.4,0.6-0.6,0.8L-76.9,336.3z M-53.3,335.5l-1.8,7h-2.8l4.1-15.7h4.1c1.2,0,2.1,0.1,2.8,0.2c0.6,0.1,1.1,0.4,1.5,0.7
	c0.5,0.4,0.8,0.9,0.9,1.5c0.1,0.6,0.1,1.3-0.1,2c-0.3,1.3-0.9,2.2-1.8,3c-0.9,0.7-2,1.2-3.4,1.3l4.4,7.2h-3.3l-4.2-7H-53.3z
	 M-52.6,333.5h0.5c1.5,0,2.6-0.2,3.2-0.5c0.6-0.3,1-0.9,1.2-1.7c0.2-0.9,0.1-1.5-0.3-1.8c-0.5-0.4-1.4-0.5-2.9-0.5h-0.5L-52.6,333.5
	z M-24.1,342.5l-1-4.1h-7.2l-3.2,4.1h-3.1l13-16.4l4.5,16.4H-24.1z M-30.6,336.3h5.1l-0.9-3.6c-0.1-0.2-0.1-0.5-0.1-0.8
	c0-0.3-0.1-0.6-0.1-1c-0.2,0.3-0.4,0.7-0.5,1c-0.2,0.3-0.4,0.6-0.6,0.8L-30.6,336.3z M1.2,328.9l0.6-2.2h-12.6l-0.6,2.2h4.8
	l-3.5,13.6h2.9l3.5-13.6H1.2z M25.9,342.5l4.1-15.7h-3l-4.1,15.7H25.9z M40.5,342.5l2.9-10.9c0.2,0.3,0.4,0.6,0.6,0.9
	c0.2,0.3,0.5,0.6,0.7,0.8l9.2,9.8l4.3-16.3h-2.7l-2.8,10.9c-0.3-0.4-0.5-0.7-0.7-1.1c-0.2-0.3-0.5-0.6-0.7-0.9l-9-9.6l-4.3,16.4
	H40.5z M80,328.9l0.5-2.2H68l-0.6,2.2h4.8l-3.5,13.6h3l3.5-13.6H80z M96.5,342.5l0.6-2.3h-7.2l1.3-5.1h7.2l0.6-2.2h-7.2l1-4h7.2
	l0.6-2.2H90.4l-4.1,15.7H96.5z M112.1,335.5l-1.8,7h-2.8l4.1-15.7h4.1c1.2,0,2.1,0.1,2.7,0.2c0.6,0.1,1.1,0.4,1.5,0.7
	c0.5,0.4,0.8,0.9,0.9,1.5c0.1,0.6,0.1,1.3-0.1,2c-0.3,1.3-0.9,2.2-1.8,3c-0.9,0.7-2,1.2-3.4,1.3l4.4,7.2h-3.3l-4.2-7H112.1z
	 M112.8,333.5h0.5c1.6,0,2.6-0.2,3.2-0.5c0.6-0.3,1-0.9,1.2-1.7c0.2-0.9,0.1-1.5-0.3-1.8c-0.5-0.4-1.4-0.5-2.9-0.5H114L112.8,333.5z
	 M132.3,342.5l1.9-7.4h7.2l0.6-2.2h-7.2l1-3.9h7.2l0.6-2.2h-10.1l-4.1,15.7H132.3z M161.4,342.5l-1-4.1h-7.2l-3.2,4.1h-3.1l13-16.4
	l4.5,16.4H161.4z M154.8,336.3h5.1l-0.9-3.6c-0.1-0.2-0.1-0.5-0.1-0.8c0-0.3-0.1-0.6-0.1-1c-0.2,0.3-0.4,0.7-0.6,1
	c-0.2,0.3-0.4,0.6-0.5,0.8L154.8,336.3z M191.9,328c-0.8-0.5-1.6-0.9-2.5-1.2c-0.9-0.3-1.9-0.4-3-0.4c-1.3,0-2.6,0.2-3.9,0.6
	c-1.3,0.4-2.5,1-3.5,1.8c-1.1,0.8-2,1.7-2.8,2.7c-0.7,1-1.3,2.1-1.6,3.2c-0.3,1.2-0.3,2.2-0.1,3.3c0.2,1,0.7,1.9,1.3,2.7
	c0.7,0.8,1.6,1.3,2.7,1.7c1.1,0.4,2.3,0.6,3.7,0.6c1.1,0,2.1-0.1,3.1-0.4c1-0.2,2-0.6,2.9-1.1l0.7-2.9c-1.1,0.7-2.1,1.2-3.2,1.5
	c-1.1,0.3-2.1,0.5-3.2,0.5c-1.8,0-3.2-0.6-4.1-1.7c-0.9-1.1-1.2-2.5-0.7-4.2c0.5-1.8,1.5-3.2,3-4.3c1.5-1.1,3.3-1.7,5.3-1.7
	c1,0,2,0.2,2.8,0.5c0.8,0.3,1.6,0.8,2.3,1.4L191.9,328z M209.4,342.5l0.6-2.3h-7.2l1.3-5.1h7.2l0.6-2.2h-7.2l1-4h7.2l0.6-2.2h-10.1
	l-4.1,15.7H209.4z M238.7,342.5l1.9-7.4h7.2l0.6-2.2h-7.2l1-3.9h7.2l0.6-2.2h-10.1l-4.1,15.7H238.7z M277.3,334.7
	c-0.3,1.1-0.8,2.2-1.6,3.2c-0.7,1-1.7,1.9-2.8,2.7c-1.1,0.8-2.3,1.4-3.6,1.8c-1.3,0.4-2.6,0.6-3.8,0.6c-1.3,0-2.5-0.2-3.6-0.6
	c-1.1-0.4-2-1-2.7-1.8c-0.7-0.8-1.2-1.7-1.4-2.6c-0.2-1-0.2-2.1,0.1-3.2c0.3-1.1,0.8-2.2,1.5-3.2c0.7-1,1.7-1.9,2.8-2.7
	c1.1-0.8,2.3-1.4,3.6-1.8c1.3-0.4,2.6-0.6,3.9-0.6c1.3,0,2.5,0.2,3.6,0.6c1.1,0.4,1.9,1,2.7,1.8c0.7,0.8,1.2,1.7,1.4,2.7
	C277.6,332.5,277.6,333.6,277.3,334.7 M274.2,334.7c0.2-0.8,0.2-1.6,0.1-2.3c-0.1-0.7-0.4-1.4-0.9-1.9c-0.5-0.6-1.1-1-1.8-1.3
	c-0.7-0.3-1.5-0.4-2.4-0.4c-0.9,0-1.8,0.1-2.6,0.4c-0.9,0.3-1.7,0.7-2.5,1.3c-0.8,0.5-1.4,1.2-1.9,1.9c-0.5,0.7-0.9,1.5-1.1,2.3
	c-0.2,0.8-0.2,1.6-0.1,2.3c0.1,0.7,0.5,1.4,0.9,1.9c0.5,0.6,1.1,1,1.8,1.3c0.7,0.3,1.5,0.4,2.4,0.4c0.9,0,1.8-0.2,2.6-0.4
	c0.9-0.3,1.7-0.7,2.5-1.3c0.8-0.6,1.4-1.2,2-1.9C273.6,336.2,274,335.5,274.2,334.7 M290.9,335.5l-1.8,7h-2.8l4.1-15.7h4.1
	c1.2,0,2.1,0.1,2.8,0.2c0.6,0.1,1.1,0.4,1.5,0.7c0.5,0.4,0.8,0.9,0.9,1.5c0.1,0.6,0.1,1.3-0.1,2c-0.3,1.3-0.9,2.2-1.8,3
	c-0.9,0.7-2,1.2-3.4,1.3l4.4,7.2h-3.3l-4.2-7H290.9z M291.6,333.5h0.5c1.6,0,2.6-0.2,3.2-0.5c0.6-0.3,1-0.9,1.2-1.7
	c0.2-0.9,0.1-1.5-0.3-1.8c-0.5-0.4-1.4-0.5-2.9-0.5h-0.5L291.6,333.5z M340.2,342.5h2.7l-0.1-16.4L335,336l-0.3,0.4
	c-0.6,0.7-1,1.3-1.3,1.7c-0.1-0.5-0.2-1-0.3-1.4c-0.1-0.4-0.1-0.6-0.2-0.8l-2.7-9.9l-8.6,16.4h2.7l4-7.8c0.2-0.4,0.4-0.8,0.5-1.1
	c0.1-0.4,0.3-0.7,0.4-1c0,0.3,0.1,0.7,0.1,1c0.1,0.3,0.1,0.7,0.2,1l2.5,8.6l6.9-8.4c0.3-0.4,0.6-0.7,0.8-1.1
	c0.2-0.4,0.4-0.7,0.6-1.1c0,0.3-0.1,0.7-0.1,1.1c-0.1,0.6-0.1,0.9-0.1,1V342.5z M373.6,334.7c-0.3,1.1-0.8,2.2-1.5,3.2
	c-0.7,1-1.7,1.9-2.8,2.7c-1.1,0.8-2.3,1.4-3.6,1.8c-1.3,0.4-2.6,0.6-3.9,0.6c-1.3,0-2.5-0.2-3.6-0.6c-1.1-0.4-2-1-2.7-1.8
	c-0.7-0.8-1.2-1.7-1.4-2.6c-0.2-1-0.2-2.1,0.1-3.2c0.3-1.1,0.8-2.2,1.5-3.2c0.7-1,1.7-1.9,2.8-2.7c1.1-0.8,2.3-1.4,3.6-1.8
	c1.3-0.4,2.6-0.6,3.9-0.6c1.3,0,2.5,0.2,3.5,0.6c1.1,0.4,2,1,2.7,1.8c0.7,0.8,1.2,1.7,1.4,2.7C373.9,332.5,373.9,333.6,373.6,334.7
	 M370.5,334.7c0.2-0.8,0.2-1.6,0.1-2.3c-0.1-0.7-0.5-1.4-0.9-1.9c-0.5-0.6-1.1-1-1.8-1.3c-0.7-0.3-1.5-0.4-2.4-0.4
	c-0.9,0-1.8,0.1-2.7,0.4c-0.9,0.3-1.7,0.7-2.5,1.3c-0.8,0.5-1.4,1.2-1.9,1.9c-0.5,0.7-0.9,1.5-1.1,2.3c-0.2,0.8-0.2,1.6-0.1,2.3
	c0.2,0.7,0.5,1.4,0.9,1.9c0.5,0.6,1.1,1,1.8,1.3c0.7,0.3,1.5,0.4,2.4,0.4c0.9,0,1.8-0.2,2.7-0.4c0.9-0.3,1.7-0.7,2.5-1.3
	c0.8-0.6,1.4-1.2,1.9-1.9C369.9,336.2,370.3,335.5,370.5,334.7 M385.3,342.5l2.8-10.9c0.2,0.3,0.4,0.6,0.6,0.9
	c0.2,0.3,0.4,0.6,0.7,0.8l9.2,9.8l4.3-16.3h-2.7l-2.8,10.9c-0.3-0.4-0.5-0.7-0.8-1.1c-0.2-0.3-0.5-0.6-0.7-0.9l-9-9.6l-4.3,16.4
	H385.3z M420.7,342.5l0.6-2.3h-7.2l1.3-5.1h7.2l0.6-2.2h-7.2l1-4h7.2l0.6-2.2h-10.1l-4.1,15.7H420.7z M438.6,342.5l1.9-7.2l8.5-8.5
	H446l-5.3,5.3c-0.2,0.2-0.4,0.4-0.6,0.6c-0.2,0.2-0.4,0.5-0.6,0.7c-0.1-0.3-0.1-0.5-0.2-0.7c-0.1-0.2-0.2-0.4-0.2-0.5l-2.4-5.3h-3.1
	l3.9,8.5l-1.9,7.2H438.6z"/>
</svg>
